<mxfile modified="2023-04-22T20:28:09.790Z" host="app.diagrams.net" agent="Mozilla/5.0 (Windows NT 10.0; Win64; x64) AppleWebKit/537.36 (KHTML, like Gecko) Chrome/112.0.0.0 Safari/537.36" etag="BerFvBw6Y3iZMMafPjdR" version="21.2.1" type="device">
  <diagram id="WI9T0HZ2pTsCkuznbFz-" name="Page-1">
    <mxGraphModel dx="1434" dy="756" grid="1" gridSize="10" guides="1" tooltips="1" connect="1" arrows="1" fold="1" page="1" pageScale="1" pageWidth="1169" pageHeight="827" math="0" shadow="0">
      <root>
        <mxCell id="0" />
        <mxCell id="1" parent="0" />
        <mxCell id="ludOifVa8UkIGbpV-UGc-37" style="edgeStyle=orthogonalEdgeStyle;rounded=0;orthogonalLoop=1;jettySize=auto;html=1;" edge="1" parent="1" source="RLjyjs_sm2IHfBNOWAbh-16" target="ludOifVa8UkIGbpV-UGc-9">
          <mxGeometry relative="1" as="geometry" />
        </mxCell>
        <mxCell id="RLjyjs_sm2IHfBNOWAbh-16" value="Dagster Pipeline&amp;nbsp;&lt;br&gt;For ETL" style="aspect=fixed;html=1;perimeter=none;align=center;shadow=0;dashed=0;image;fontSize=12;image=img/lib/mscae/Stream_Analytics.svg;labelBackgroundColor=#ffffff;fillColor=#4D9900;" parent="1" vertex="1">
          <mxGeometry x="424.0000000000001" y="303.5" width="65" height="51" as="geometry" />
        </mxCell>
        <mxCell id="ludOifVa8UkIGbpV-UGc-52" value="data visualization&amp;nbsp;&lt;br&gt;of the merged CSV" style="edgeStyle=orthogonalEdgeStyle;rounded=0;orthogonalLoop=1;jettySize=auto;html=1;strokeColor=#000000;" edge="1" parent="1" source="RLjyjs_sm2IHfBNOWAbh-21" target="ludOifVa8UkIGbpV-UGc-46">
          <mxGeometry relative="1" as="geometry" />
        </mxCell>
        <mxCell id="RLjyjs_sm2IHfBNOWAbh-21" value="Machine&lt;br&gt;Learning" style="aspect=fixed;html=1;perimeter=none;align=center;shadow=0;dashed=0;image;fontSize=12;image=img/lib/mscae/Machine_Learning.svg;labelBackgroundColor=#ffffff;fillColor=#4D9900;" parent="1" vertex="1">
          <mxGeometry x="534" y="465.0000000000001" width="49" height="50" as="geometry" />
        </mxCell>
        <mxCell id="ludOifVa8UkIGbpV-UGc-31" style="edgeStyle=orthogonalEdgeStyle;rounded=0;orthogonalLoop=1;jettySize=auto;html=1;entryX=0.021;entryY=0.615;entryDx=0;entryDy=0;entryPerimeter=0;" edge="1" parent="1" source="ludOifVa8UkIGbpV-UGc-7" target="ludOifVa8UkIGbpV-UGc-25">
          <mxGeometry relative="1" as="geometry" />
        </mxCell>
        <mxCell id="ludOifVa8UkIGbpV-UGc-7" value="Json Response &lt;br&gt;From The API&#39;s" style="image;sketch=0;aspect=fixed;html=1;points=[];align=center;fontSize=12;image=img/lib/mscae/Templates.svg;strokeColor=#000000;" vertex="1" parent="1">
          <mxGeometry x="44" y="275.5" width="44" height="50" as="geometry" />
        </mxCell>
        <mxCell id="ludOifVa8UkIGbpV-UGc-36" style="edgeStyle=orthogonalEdgeStyle;rounded=0;orthogonalLoop=1;jettySize=auto;html=1;" edge="1" parent="1" target="RLjyjs_sm2IHfBNOWAbh-16">
          <mxGeometry relative="1" as="geometry">
            <mxPoint x="412" y="188.5" as="sourcePoint" />
          </mxGeometry>
        </mxCell>
        <mxCell id="ludOifVa8UkIGbpV-UGc-9" value="Postgres server" style="image;sketch=0;aspect=fixed;html=1;points=[];align=center;fontSize=12;image=img/lib/mscae/Azure_Database_for_PostgreSQL_servers.svg;strokeColor=#000000;" vertex="1" parent="1">
          <mxGeometry x="551" y="163.5" width="38" height="50" as="geometry" />
        </mxCell>
        <mxCell id="ludOifVa8UkIGbpV-UGc-16" value="OPenStack cloud for servers" style="sketch=0;aspect=fixed;pointerEvents=1;shadow=0;dashed=0;html=1;strokeColor=none;labelPosition=center;verticalLabelPosition=bottom;verticalAlign=top;align=center;fillColor=#00188D;shape=mxgraph.mscae.enterprise.internet_hollow" vertex="1" parent="1">
          <mxGeometry x="334.42" y="74.30000000000001" width="282.58" height="175.2" as="geometry" />
        </mxCell>
        <mxCell id="ludOifVa8UkIGbpV-UGc-22" value="Static API&#39;s/ Live API&#39;s" style="shape=image;verticalLabelPosition=bottom;labelBackgroundColor=#ffffff;verticalAlign=top;aspect=fixed;imageAspect=0;image=data:image/svg+xml,PHN2ZyB4bWxuczpkYz0iaHR0cDovL3B1cmwub3JnL2RjL2VsZW1lbnRzLzEuMS8iIHhtbG5zOmNjPSJodHRwOi8vY3JlYXRpdmVjb21tb25zLm9yZy9ucyMiIHhtbG5zOnJkZj0iaHR0cDovL3d3dy53My5vcmcvMTk5OS8wMi8yMi1yZGYtc3ludGF4LW5zIyIgeG1sbnM6c3ZnPSJodHRwOi8vd3d3LnczLm9yZy8yMDAwL3N2ZyIgeG1sbnM9Imh0dHA6Ly93d3cudzMub3JnLzIwMDAvc3ZnIiB4bWxuczpzb2RpcG9kaT0iaHR0cDovL3NvZGlwb2RpLnNvdXJjZWZvcmdlLm5ldC9EVEQvc29kaXBvZGktMC5kdGQiIHhtbG5zOmlua3NjYXBlPSJodHRwOi8vd3d3Lmlua3NjYXBlLm9yZy9uYW1lc3BhY2VzL2lua3NjYXBlIiB2ZXJzaW9uPSIxLjEiIGlkPSJMYXllcl8xIiB4PSIwcHgiIHk9IjBweCIgdmlld0JveD0iMCAwIDQ4IDQ3Ljk5OTk5OSIgeG1sOnNwYWNlPSJwcmVzZXJ2ZSIgc29kaXBvZGk6ZG9jbmFtZT0iYXBpLnN2ZyIgd2lkdGg9IjQ4IiBoZWlnaHQ9IjQ4IiBpbmtzY2FwZTp2ZXJzaW9uPSIwLjkyLjMgKDI0MDU1NDYsIDIwMTgtMDMtMTEpIj48bWV0YWRhdGEgaWQ9Im1ldGFkYXRhNzA1NiI+PHJkZjpSREY+PGNjOldvcmsgcmRmOmFib3V0PSIiPjxkYzpmb3JtYXQ+aW1hZ2Uvc3ZnK3htbDwvZGM6Zm9ybWF0PjxkYzp0eXBlIHJkZjpyZXNvdXJjZT0iaHR0cDovL3B1cmwub3JnL2RjL2RjbWl0eXBlL1N0aWxsSW1hZ2UiLz48ZGM6dGl0bGUvPjwvY2M6V29yaz48L3JkZjpSREY+PC9tZXRhZGF0YT48ZGVmcyBpZD0iZGVmczcwNTQiLz48c29kaXBvZGk6bmFtZWR2aWV3IHBhZ2Vjb2xvcj0iI2ZmZmZmZiIgYm9yZGVyY29sb3I9IiM2NjY2NjYiIGJvcmRlcm9wYWNpdHk9IjEiIG9iamVjdHRvbGVyYW5jZT0iMTAiIGdyaWR0b2xlcmFuY2U9IjEwIiBndWlkZXRvbGVyYW5jZT0iMTAiIGlua3NjYXBlOnBhZ2VvcGFjaXR5PSIwIiBpbmtzY2FwZTpwYWdlc2hhZG93PSIyIiBpbmtzY2FwZTp3aW5kb3ctd2lkdGg9IjE5MjAiIGlua3NjYXBlOndpbmRvdy1oZWlnaHQ9IjEwMTciIGlkPSJuYW1lZHZpZXc3MDUyIiBzaG93Z3JpZD0iZmFsc2UiIGZpdC1tYXJnaW4tdG9wPSIwIiBmaXQtbWFyZ2luLWxlZnQ9IjAiIGZpdC1tYXJnaW4tcmlnaHQ9IjAiIGZpdC1tYXJnaW4tYm90dG9tPSIwIiBpbmtzY2FwZTp6b29tPSI4LjAxODg2NzciIGlua3NjYXBlOmN4PSItMy41NzM3ODc2IiBpbmtzY2FwZTpjeT0iMTQuMDEyMDE4IiBpbmtzY2FwZTp3aW5kb3cteD0iLTgiIGlua3NjYXBlOndpbmRvdy15PSItOCIgaW5rc2NhcGU6d2luZG93LW1heGltaXplZD0iMSIgaW5rc2NhcGU6Y3VycmVudC1sYXllcj0iTGF5ZXJfMSIvPiYjeGE7PGcgaWQ9Imc3MDQ5IiB0cmFuc2Zvcm09InRyYW5zbGF0ZSgyLjNlLTQsMC43NDk3NykiPiYjeGE7CTx0aXRsZSBpZD0idGl0bGU3MDEwIj5QYWdlLTE8L3RpdGxlPiYjeGE7CTxnIGlkPSJncm91cDE3Ny0xIiB0cmFuc2Zvcm09InRyYW5zbGF0ZSg4LjMwOTc3LC0xLjUpIj4mI3hhOwkJPHRpdGxlIGlkPSJ0aXRsZTcwMTIiPkFQSTwvdGl0bGU+JiN4YTsJCTxnIGlkPSJzaGFwZTE3OC0yIiB0cmFuc2Zvcm09InRyYW5zbGF0ZSgwLC02LjgwOTc3KSI+JiN4YTsJCQk8dGl0bGUgaWQ9InRpdGxlNzAxNCI+cGF0aDY3MDM8L3RpdGxlPiYjeGE7CQkJPHBhdGggc3R5bGU9ImZpbGw6I2ZmZmZmZiIgZD0iTSAzOC45NCwzMS41NiBDIDM4Ljk0LDQ0LjQgMjguNTMsNTQuODEgMTUuNjksNTQuODEgMi44NSw1NC44MSAtNy41Niw0NC40IC03LjU2LDMxLjU2IC03LjU2LDE4LjcyIDIuODUsOC4zMSAxNS42OSw4LjMxIHYgMCBjIDEyLjg0LDAgMjMuMjUsMTAuNDEgMjMuMjUsMjMuMjUgeiIgaWQ9InBhdGg3MDE2IiBpbmtzY2FwZTpjb25uZWN0b3ItY3VydmF0dXJlPSIwIi8+JiN4YTsJCTwvZz4mI3hhOwkJPGcgaWQ9InNoYXBlMTc5LTQiIHRyYW5zZm9ybT0idHJhbnNsYXRlKDE2LjQ0MDIpIj4mI3hhOwkJCTx0aXRsZSBpZD0idGl0bGU3MDE5Ij5wYXRoNjcwNTwvdGl0bGU+JiN4YTsJCQk8cGF0aCBzdHlsZT0iZmlsbDojZTVlNWU1IiBkPSJNIDIyLjUsMjQuNzUgQyAyMi41LDM3LjU5IDEyLjA5LDQ4IC0wLjc1LDQ4IFYgMS41IGMgMTIuODQsMCAyMy4yNSwxMC40MSAyMy4yNSwyMy4yNSB6IiBpZD0icGF0aDcwMjEiIGlua3NjYXBlOmNvbm5lY3Rvci1jdXJ2YXR1cmU9IjAiLz4mI3hhOwkJPC9nPiYjeGE7CQk8ZyBpZD0ic2hhcGUxODAtNiIgdHJhbnNmb3JtPSJ0cmFuc2xhdGUoMCwtNi44MDk3NykiPiYjeGE7CQkJPHRpdGxlIGlkPSJ0aXRsZTcwMjQiPnBhdGg2NzA3PC90aXRsZT4mI3hhOwkJCTxwYXRoIHN0eWxlPSJmaWxsOm5vbmU7c3Ryb2tlOiM1NTZhOGE7c3Ryb2tlLXdpZHRoOjEuNTtzdHJva2UtbWl0ZXJsaW1pdDozIiBkPSJNIDM4Ljk0LDMxLjU2IEMgMzguOTQsNDQuNCAyOC41Myw1NC44MSAxNS42OSw1NC44MSAyLjg1LDU0LjgxIC03LjU2LDQ0LjQgLTcuNTYsMzEuNTYgLTcuNTYsMTguNzIgMi44NSw4LjMxIDE1LjY5LDguMzEgdiAwIGMgMTIuODQsMCAyMy4yNSwxMC40MSAyMy4yNSwyMy4yNSB6IiBpZD0icGF0aDcwMjYiIGlua3NjYXBlOmNvbm5lY3Rvci1jdXJ2YXR1cmU9IjAiLz4mI3hhOwkJPC9nPiYjeGE7CQk8ZyBpZD0ic2hhcGUxODEtOCIgdHJhbnNmb3JtPSJ0cmFuc2xhdGUoOC45NDAyMywtMTAuNDEpIj4mI3hhOwkJCTx0aXRsZSBpZD0idGl0bGU3MDI5Ij5wYXRoNjcwOTwvdGl0bGU+JiN4YTsJCQk8cGF0aCBzdHlsZT0iZmlsbDpub25lIiBkPSJtIC0wLjc1LDQ4IGMgMy4zNiwzLjk0IDkuMjgsNC40MSAxMy4yMiwxLjA1IDMuOTQsLTMuMzYgNC40MSwtOS4yOCAxLjA1LC0xMy4yMiAtMy4zNiwtMy45NCAtOS4yOCwtNC40MSAtMTMuMjIsLTEuMDUgLTAuMzgsMC4zMiAtMC43MywwLjY3IC0xLjA1LDEuMDUgeiIgaWQ9InBhdGg3MDMxIiBpbmtzY2FwZTpjb25uZWN0b3ItY3VydmF0dXJlPSIwIi8+JiN4YTsJCQk8cGF0aCBzdHlsZT0iZmlsbDpub25lO3N0cm9rZTojNTU2YThhO3N0cm9rZS13aWR0aDoxLjU7c3Ryb2tlLW1pdGVybGltaXQ6MyIgZD0ibSAtMC43NSw0OCBjIDMuMzYsMy45NCA5LjI4LDQuNDEgMTMuMjIsMS4wNSAzLjk0LC0zLjM2IDQuNDEsLTkuMjggMS4wNSwtMTMuMjIgLTMuMzYsLTMuOTQgLTkuMjgsLTQuNDEgLTEzLjIyLC0xLjA1IC0wLjM4LDAuMzIgLTAuNzMsMC42NyAtMS4wNSwxLjA1IiBpZD0icGF0aDcwMzMiIGlua3NjYXBlOmNvbm5lY3Rvci1jdXJ2YXR1cmU9IjAiLz4mI3hhOwkJPC9nPiYjeGE7CQk8ZyBpZD0ic2hhcGUxODItMTEiIHRyYW5zZm9ybT0idHJhbnNsYXRlKDIuMTkwMjMsLTE2LjUpIj4mI3hhOwkJCTx0aXRsZSBpZD0idGl0bGU3MDM2Ij5wb2x5bGluZTY3MTE8L3RpdGxlPiYjeGE7CQkJPHBhdGggc3R5bGU9ImZpbGw6bm9uZSIgZD0ibSAxMS4yNSw0OCBoIC0xMiBWIDI4LjUgaCAyOC41IFYgNDggaCAtNiB6IiBpZD0icGF0aDcwMzgiIGlua3NjYXBlOmNvbm5lY3Rvci1jdXJ2YXR1cmU9IjAiLz4mI3hhOwkJCTxwYXRoIHN0eWxlPSJmaWxsOm5vbmU7c3Ryb2tlOiM1NTZhOGE7c3Ryb2tlLXdpZHRoOjEuNTtzdHJva2UtbWl0ZXJsaW1pdDozIiBkPSJtIDExLjI1LDQ4IGggLTEyIFYgMjguNSBoIDI4LjUgViA0OCBoIC02IiBpZD0icGF0aDcwNDAiIGlua3NjYXBlOmNvbm5lY3Rvci1jdXJ2YXR1cmU9IjAiLz4mI3hhOwkJPC9nPiYjeGE7CQk8ZyBpZD0ic2hhcGUxODMtMTQiIHRyYW5zZm9ybT0idHJhbnNsYXRlKDExLjg5NTIsLTExLjYyNSkiPiYjeGE7CQkJPHRpdGxlIGlkPSJ0aXRsZTcwNDMiPmNpcmNsZTY3MTM8L3RpdGxlPiYjeGE7CQkJPGNpcmNsZSBzdHlsZT0iZmlsbDojMmJjN2Y0IiBjeD0iNC4xMzAwMDAxIiBjeT0iNDMuMTMwMDAxIiBpZD0iZWxsaXBzZTcwNDUiIHI9IjQuODgwMDAwMSIvPiYjeGE7CQk8L2c+JiN4YTsJPC9nPiYjeGE7PC9nPiYjeGE7PC9zdmc+;shadow=1;strokeColor=#0F0F0F;" vertex="1" parent="1">
          <mxGeometry x="44" y="201.5" width="48" height="48" as="geometry" />
        </mxCell>
        <mxCell id="ludOifVa8UkIGbpV-UGc-24" value="" style="shape=image;verticalLabelPosition=bottom;labelBackgroundColor=#ffffff;verticalAlign=top;aspect=fixed;imageAspect=0;image=data:image/svg+xml,PHN2ZyB4bWxuczpjYz0iaHR0cDovL2NyZWF0aXZlY29tbW9ucy5vcmcvbnMjIiB4bWxuczpkYz0iaHR0cDovL3B1cmwub3JnL2RjL2VsZW1lbnRzLzEuMS8iIHhtbG5zOmlua3NjYXBlPSJodHRwOi8vd3d3Lmlua3NjYXBlLm9yZy9uYW1lc3BhY2VzL2lua3NjYXBlIiB4bWxuczpyZGY9Imh0dHA6Ly93d3cudzMub3JnLzE5OTkvMDIvMjItcmRmLXN5bnRheC1ucyMiIHhtbG5zOnNvZGlwb2RpPSJodHRwOi8vc29kaXBvZGkuc291cmNlZm9yZ2UubmV0L0RURC9zb2RpcG9kaS0wLmR0ZCIgeG1sbnM6c3ZnPSJodHRwOi8vd3d3LnczLm9yZy8yMDAwL3N2ZyIgeG1sbnM9Imh0dHA6Ly93d3cudzMub3JnLzIwMDAvc3ZnIiB4bWxuczp4bGluaz0iaHR0cDovL3d3dy53My5vcmcvMTk5OS94bGluayIgdmVyc2lvbj0iMS4xIiBpZD0ic3ZnNDQxMjgiIGlua3NjYXBlOnZlcnNpb249IjAuOTIuMyAoMjQwNTU0NiwgMjAxOC0wMy0xMSkiIHNvZGlwb2RpOmRvY25hbWU9ImNvZGVfZmlsZS5zdmciIHg9IjBweCIgeT0iMHB4IiB2aWV3Qm94PSIwIDAgMjIuNTkgMjMuNDUiIHN0eWxlPSJlbmFibGUtYmFja2dyb3VuZDpuZXcgMCAwIDIyLjU5IDIzLjQ1OyIgeG1sOnNwYWNlPSJwcmVzZXJ2ZSI+JiN4YTs8c29kaXBvZGk6bmFtZWR2aWV3IGJvcmRlcmNvbG9yPSIjNjY2NjY2IiBib3JkZXJvcGFjaXR5PSIxIiBmaXQtbWFyZ2luLWJvdHRvbT0iMCIgZml0LW1hcmdpbi1sZWZ0PSIwIiBmaXQtbWFyZ2luLXJpZ2h0PSIwIiBmaXQtbWFyZ2luLXRvcD0iMCIgZ3JpZHRvbGVyYW5jZT0iMTAiIGd1aWRldG9sZXJhbmNlPSIxMCIgaWQ9Im5hbWVkdmlldzQ0MTMwIiBpbmtzY2FwZTpjdXJyZW50LWxheWVyPSJzdmc0NDEyOCIgaW5rc2NhcGU6Y3g9IjEuNDMzMjc2NyIgaW5rc2NhcGU6Y3k9Ii01NC44ODYxMTciIGlua3NjYXBlOnBhZ2VvcGFjaXR5PSIwIiBpbmtzY2FwZTpwYWdlc2hhZG93PSIyIiBpbmtzY2FwZTp3aW5kb3ctaGVpZ2h0PSIxMDE3IiBpbmtzY2FwZTp3aW5kb3ctbWF4aW1pemVkPSIxIiBpbmtzY2FwZTp3aW5kb3ctd2lkdGg9IjE5MjAiIGlua3NjYXBlOndpbmRvdy14PSItOCIgaW5rc2NhcGU6d2luZG93LXk9Ii04IiBpbmtzY2FwZTp6b29tPSIzLjU3MDUzODUiIG9iamVjdHRvbGVyYW5jZT0iMTAiIHBhZ2Vjb2xvcj0iI2ZmZmZmZiIgc2hvd2dyaWQ9ImZhbHNlIj4mI3hhOwk8L3NvZGlwb2RpOm5hbWVkdmlldz4mI3hhOzxnIGlkPSJnNDQxMjYiIHRyYW5zZm9ybT0idHJhbnNsYXRlKC0yNC43MDYxLC0wLjc1MzUpIj4mI3hhOwk8dGl0bGUgaWQ9InRpdGxlNDQxMDYiPlBhZ2UtMTwvdGl0bGU+JiN4YTsJPGcgaWQ9Imdyb3VwMzE1My0xIiB0cmFuc2Zvcm09InRyYW5zbGF0ZSgyNC43MDYxLC00MC4xODY1KSI+JiN4YTsJCTx0aXRsZSBpZD0idGl0bGU0NDEwOCI+Q29kZSBmaWxlPC90aXRsZT4mI3hhOwkJPGcgaWQ9InNoYXBlMzE1NC0yIj4mI3hhOwkJCTx0aXRsZSBpZD0idGl0bGU0NDExMCI+U2hlZXQuMzE1NDwvdGl0bGU+JiN4YTsJCQk8cGF0aCBpZD0icGF0aDQ0MTEyIiBpbmtzY2FwZTpjb25uZWN0b3ItY3VydmF0dXJlPSIwIiBzdHlsZT0iZmlsbDojM0Y1NzY1OyIgZD0iTTE3Ljg4LDQwLjk0SDMuMTNDMS40LDQwLjk0LDAsNDIuMzQsMCw0NC4wNiAgICAgdjE3LjJjMCwxLjczLDEuNCwzLjEzLDMuMTMsMy4xM2gxNi4zM2MxLjcyLDAsMy4xMy0xLjQsMy4xMy0zLjEzVjQ1LjU5TDE3Ljg4LDQwLjk0eiBNMjAuNjksNjEuMjZjMCwwLjY4LTAuNTUsMS4yNC0xLjIzLDEuMjQgICAgIEgzLjEyYy0wLjY3LDAtMS4yMi0wLjU2LTEuMjItMS4yNHYtMTcuMmMwLTAuNjcsMC41NS0xLjIyLDEuMjItMS4yMkgxNi45djMuODZoMy43OVY2MS4yNnoiLz4mI3hhOwkJPC9nPiYjeGE7CQk8ZyBpZD0ic2hhcGUzMTU1LTQiIHRyYW5zZm9ybT0idHJhbnNsYXRlKDUuNzE1NzUsLTUuNTIwNzUpIj4mI3hhOwkJCTx0aXRsZSBpZD0idGl0bGU0NDExNSI+U2hlZXQuMzE1NTwvdGl0bGU+JiN4YTsJCQk8cGF0aCBpZD0icGF0aDQ0MTE3IiBpbmtzY2FwZTpjb25uZWN0b3ItY3VydmF0dXJlPSIwIiBzdHlsZT0iZmlsbDojM0Y1NzY1OyIgZD0iTTEuMDcsNTQuNjF2MS41N2MwLDAuOS0wLjM2LDEuMzUtMS4wNywxLjM1ICAgICB2MS4yOWMwLjcxLDAsMS4wNywwLjQ0LDEuMDcsMS4zdjEuNjljMCwwLjg5LDAuMiwxLjUzLDAuNTksMS45MUMyLjEsNjQuMTcsMi44OSw2NC4zOSw0LDY0LjM5di0xLjMyYy0wLjQsMC0wLjY4LTAuMS0wLjg2LTAuMjkgICAgIGMtMC4xOC0wLjE5LTAuMjYtMC41Mi0wLjI2LTAuOTh2LTEuNDRjMC0xLjE2LTAuMzctMS44OC0xLjA5LTIuMTd2LTAuMDNjMC43Mi0wLjI5LDEuMDktMS4wMSwxLjA5LTIuMTN2LTEuNTEgICAgIGMwLTAuODEsMC4zNy0xLjIyLDEuMTItMS4yMnYtMS4zMmMtMS4xLDAtMS44NywwLjIyLTIuMzIsMC42NkMxLjI3LDUzLjA0LDEuMDcsNTMuNywxLjA3LDU0LjYxeiIvPiYjeGE7CQk8L2c+JiN4YTsJCTxnIGlkPSJzaGFwZTMxNTYtNiIgdHJhbnNmb3JtPSJ0cmFuc2xhdGUoMTIuMTIsLTUuNTIwNzUpIj4mI3hhOwkJCTx0aXRsZSBpZD0idGl0bGU0NDEyMCI+U2hlZXQuMzE1NjwvdGl0bGU+JiN4YTsJCQk8cGF0aCBpZD0icGF0aDQ0MTIyIiBpbmtzY2FwZTpjb25uZWN0b3ItY3VydmF0dXJlPSIwIiBzdHlsZT0iZmlsbDojM0Y1NzY1OyIgZD0iTTIuOTIsNTYuMnYtMS42MmMwLTAuODktMC4yLTEuNTMtMC42LTEuOTMgICAgIEMxLjg3LDUyLjIsMS4wOSw1MS45OCwwLDUxLjk4djEuMzJjMC43NSwwLDEuMTMsMC40MSwxLjEzLDEuMjJ2MS40NWMwLDEuMTcsMC4zNiwxLjkxLDEuMDgsMi4yMXYwLjAyICAgICBjLTAuNzIsMC4yOS0xLjA4LDAuOTktMS4wOCwyLjExdjEuNWMwLDAuNDUtMC4wOSwwLjc3LTAuMjYsMC45NmMtMC4xNiwwLjItMC40NiwwLjMtMC44NywwLjN2MS4zMmMxLjEyLDAsMS45LTAuMjIsMi4zNC0wLjY3ICAgICBjMC4zOS0wLjM5LDAuNTgtMS4wNCwwLjU4LTEuOTV2LTEuNjNjMC0wLjg4LDAuMzYtMS4zMiwxLjA4LTEuMzJ2LTEuMjlDMy4yOCw1Ny41MywyLjkyLDU3LjA4LDIuOTIsNTYuMnoiLz4mI3hhOwkJPC9nPiYjeGE7CTwvZz4mI3hhOzwvZz4mI3hhOzwvc3ZnPg==;" vertex="1" parent="1">
          <mxGeometry x="524" y="310" width="23" height="23" as="geometry" />
        </mxCell>
        <mxCell id="ludOifVa8UkIGbpV-UGc-34" style="edgeStyle=orthogonalEdgeStyle;rounded=0;orthogonalLoop=1;jettySize=auto;html=1;exitX=1;exitY=0.5;exitDx=0;exitDy=0;entryX=0.177;entryY=0.735;entryDx=0;entryDy=0;entryPerimeter=0;" edge="1" parent="1">
          <mxGeometry relative="1" as="geometry">
            <mxPoint x="251.1099999999999" y="457" as="sourcePoint" />
            <mxPoint x="384.4366600000001" y="212.0719999999999" as="targetPoint" />
          </mxGeometry>
        </mxCell>
        <mxCell id="ludOifVa8UkIGbpV-UGc-49" value="Analysis of individual&amp;nbsp;&lt;br&gt;CSV and performing&amp;nbsp;&lt;br&gt;data Analysis" style="edgeStyle=orthogonalEdgeStyle;rounded=0;orthogonalLoop=1;jettySize=auto;html=1;exitX=0.5;exitY=1;exitDx=0;exitDy=0;strokeColor=#000000;" edge="1" parent="1" source="ludOifVa8UkIGbpV-UGc-25" target="ludOifVa8UkIGbpV-UGc-47">
          <mxGeometry relative="1" as="geometry" />
        </mxCell>
        <mxCell id="ludOifVa8UkIGbpV-UGc-50" value="Merge all the CSV files&lt;br&gt;and bring to a common ground&lt;br&gt;for visualization" style="edgeStyle=orthogonalEdgeStyle;rounded=0;orthogonalLoop=1;jettySize=auto;html=1;exitX=1;exitY=0.75;exitDx=0;exitDy=0;entryX=0.122;entryY=0.7;entryDx=0;entryDy=0;entryPerimeter=0;strokeColor=#000000;" edge="1" parent="1" source="ludOifVa8UkIGbpV-UGc-25" target="RLjyjs_sm2IHfBNOWAbh-21">
          <mxGeometry relative="1" as="geometry" />
        </mxCell>
        <mxCell id="ludOifVa8UkIGbpV-UGc-25" value="" style="shape=image;verticalLabelPosition=bottom;labelBackgroundColor=#ffffff;verticalAlign=top;aspect=fixed;imageAspect=0;image=data:image/svg+xml,PHN2ZyB4bWxuczpjYz0iaHR0cDovL2NyZWF0aXZlY29tbW9ucy5vcmcvbnMjIiB4bWxuczpkYz0iaHR0cDovL3B1cmwub3JnL2RjL2VsZW1lbnRzLzEuMS8iIHhtbG5zOmlua3NjYXBlPSJodHRwOi8vd3d3Lmlua3NjYXBlLm9yZy9uYW1lc3BhY2VzL2lua3NjYXBlIiB4bWxuczpyZGY9Imh0dHA6Ly93d3cudzMub3JnLzE5OTkvMDIvMjItcmRmLXN5bnRheC1ucyMiIHhtbG5zOnNvZGlwb2RpPSJodHRwOi8vc29kaXBvZGkuc291cmNlZm9yZ2UubmV0L0RURC9zb2RpcG9kaS0wLmR0ZCIgeG1sbnM6c3ZnPSJodHRwOi8vd3d3LnczLm9yZy8yMDAwL3N2ZyIgeG1sbnM9Imh0dHA6Ly93d3cudzMub3JnLzIwMDAvc3ZnIiB4bWxuczp4bGluaz0iaHR0cDovL3d3dy53My5vcmcvMTk5OS94bGluayIgdmVyc2lvbj0iMS4xIiBpZD0ic3ZnNDUwMTQiIGlua3NjYXBlOnZlcnNpb249IjAuOTIuMyAoMjQwNTU0NiwgMjAxOC0wMy0xMSkiIHNvZGlwb2RpOmRvY25hbWU9ImNzdl9maWxlLnN2ZyIgeD0iMHB4IiB5PSIwcHgiIHZpZXdCb3g9IjAgMCA5NS4zMyAxMjIuNTYiIHN0eWxlPSJlbmFibGUtYmFja2dyb3VuZDpuZXcgMCAwIDk1LjMzIDEyMi41NjsiIHhtbDpzcGFjZT0icHJlc2VydmUiPiYjeGE7PHNvZGlwb2RpOm5hbWVkdmlldyBib3JkZXJjb2xvcj0iIzY2NjY2NiIgYm9yZGVyb3BhY2l0eT0iMSIgZml0LW1hcmdpbi1ib3R0b209IjAiIGZpdC1tYXJnaW4tbGVmdD0iMCIgZml0LW1hcmdpbi1yaWdodD0iMCIgZml0LW1hcmdpbi10b3A9IjAiIGdyaWR0b2xlcmFuY2U9IjEwIiBndWlkZXRvbGVyYW5jZT0iMTAiIGlkPSJuYW1lZHZpZXc0NTAxNiIgaW5rc2NhcGU6Y3VycmVudC1sYXllcj0ic3ZnNDUwMTQiIGlua3NjYXBlOmN4PSI2NS40ODMzMTQiIGlua3NjYXBlOmN5PSI2MC43MTUyODkiIGlua3NjYXBlOnBhZ2VvcGFjaXR5PSIwIiBpbmtzY2FwZTpwYWdlc2hhZG93PSIyIiBpbmtzY2FwZTp3aW5kb3ctaGVpZ2h0PSIxMDE3IiBpbmtzY2FwZTp3aW5kb3ctbWF4aW1pemVkPSIxIiBpbmtzY2FwZTp3aW5kb3ctd2lkdGg9IjE5MjAiIGlua3NjYXBlOndpbmRvdy14PSItOCIgaW5rc2NhcGU6d2luZG93LXk9Ii04IiBpbmtzY2FwZTp6b29tPSIzLjAwMTk5NyIgb2JqZWN0dG9sZXJhbmNlPSIxMCIgcGFnZWNvbG9yPSIjZmZmZmZmIiBzaG93Z3JpZD0iZmFsc2UiPiYjeGE7CTwvc29kaXBvZGk6bmFtZWR2aWV3PiYjeGE7PGcgaWQ9Imc0NTAxMiIgdHJhbnNmb3JtPSJ0cmFuc2xhdGUoLTE1LjMsLTE1LjMwMDQ4OCkiPiYjeGE7CTx0aXRsZSBpZD0idGl0bGU0NDkzNiI+UGFnZS0xPC90aXRsZT4mI3hhOwk8ZyBpZD0iZ3JvdXA0MTcwLTEiIHRyYW5zZm9ybT0idHJhbnNsYXRlKDE1LjMsLTE1LjMpIj4mI3hhOwkJPHRpdGxlIGlkPSJ0aXRsZTQ0OTM4Ij5DU1YgRmlsZTwvdGl0bGU+JiN4YTsJCTxnIGlkPSJncm91cDQxNzEtMiI+JiN4YTsJCQk8dGl0bGUgaWQ9InRpdGxlNDQ5NDAiPlNoZWV0LjQxNzE8L3RpdGxlPiYjeGE7CQkJPGcgaWQ9InNoYXBlNDE3Mi0zIiB0cmFuc2Zvcm09InRyYW5zbGF0ZSgxLjcwMjI3LC0xLjcwMjI3KSI+JiN4YTsJCQkJPHRpdGxlIGlkPSJ0aXRsZTQ0OTQyIj5TaGVldC40MTcyPC90aXRsZT4mI3hhOwkJCQk8cGF0aCBpZD0icGF0aDQ0OTQ0IiBpbmtzY2FwZTpjb25uZWN0b3ItY3VydmF0dXJlPSIwIiBzdHlsZT0iZmlsbDojRkZGRkZGOyIgZD0iTTAsMTUzLjE2VjM0aDYyLjI4bDI5LjY0LDI5LjY1djg5LjUxSDB6Ii8+JiN4YTsJCQk8L2c+JiN4YTsJCQk8ZyBpZD0ic2hhcGU0MTczLTUiPiYjeGE7CQkJCTx0aXRsZSBpZD0idGl0bGU0NDk0NyI+U2hlZXQuNDE3MzwvdGl0bGU+JiN4YTsJCQkJPHBhdGggaWQ9InBhdGg0NDk0OSIgaW5rc2NhcGU6Y29ubmVjdG9yLWN1cnZhdHVyZT0iMCIgc3R5bGU9ImZpbGw6Izc4OEI5QzsiIGQ9Ik02My4yOCwzNGwyOC42NCwyOC42NXY4Ny4xMUgzLjRWMzRINjMuMjh6ICAgICAgIE02NC42OSwzMC42SDB2MTIyLjU2aDk1LjMzVjYxLjI0TDY0LjY5LDMwLjZ6Ii8+JiN4YTsJCQk8L2c+JiN4YTsJCTwvZz4mI3hhOwkJPGcgaWQ9Imdyb3VwNDE3NC03IiB0cmFuc2Zvcm09InRyYW5zbGF0ZSg2MS4yODE2LC04OC41MTc4KSI+JiN4YTsJCQk8dGl0bGUgaWQ9InRpdGxlNDQ5NTMiPlNoZWV0LjQxNzQ8L3RpdGxlPiYjeGE7CQkJPGcgaWQ9InNoYXBlNDE3NS04IiB0cmFuc2Zvcm09InRyYW5zbGF0ZSgxLjcwMjI3LC0xLjcwMjI3KSI+JiN4YTsJCQkJPHRpdGxlIGlkPSJ0aXRsZTQ0OTU1Ij5TaGVldC40MTc1PC90aXRsZT4mI3hhOwkJCQk8cGF0aCBpZD0icGF0aDQ0OTU3IiBpbmtzY2FwZTpjb25uZWN0b3ItY3VydmF0dXJlPSIwIiBzdHlsZT0iZmlsbDojRkZGRkZGOyIgZD0iTTAsMTUzLjE2di0zMC42NGgxbDI5LjY0LDI5LjY1djAuOTlIMHoiLz4mI3hhOwkJCTwvZz4mI3hhOwkJCTxnIGlkPSJzaGFwZTQxNzYtMTAiPiYjeGE7CQkJCTx0aXRsZSBpZD0idGl0bGU0NDk2MCI+U2hlZXQuNDE3NjwvdGl0bGU+JiN4YTsJCQkJPHBhdGggaWQ9InBhdGg0NDk2MiIgaW5rc2NhcGU6Y29ubmVjdG9yLWN1cnZhdHVyZT0iMCIgc3R5bGU9ImZpbGw6Izc4OEI5QzsiIGQ9Ik0zLjQsMTIzLjkzbDI1LjgzLDI1LjgzSDMuNFYxMjMuOTN6ICAgICAgIE0zLjQsMTE5LjEySDB2MzQuMDRoMzQuMDV2LTMuNEwzLjQsMTE5LjEyeiIvPiYjeGE7CQkJPC9nPiYjeGE7CQk8L2c+JiN4YTsJCTxnIGlkPSJzaGFwZTQxNzctMTIiIHRyYW5zZm9ybT0idHJhbnNsYXRlKDEzLjYxODEsLTk4LjczMTQpIj4mI3hhOwkJCTx0aXRsZSBpZD0idGl0bGU0NDk2NiI+U2hlZXQuNDE3NzwvdGl0bGU+JiN4YTsJCQk8cGF0aCBpZD0icGF0aDQ0OTY4IiBpbmtzY2FwZTpjb25uZWN0b3ItY3VydmF0dXJlPSIwIiBzdHlsZT0iZmlsbDojQkFFMEJEOyIgZD0iTTAsMTUzLjE2aDEzLjYydi0zLjRIMFYxNTMuMTZ6IE0yMy44MywxNDkuNzYgICAgIHYzLjRoMjAuNDN2LTMuNEgyMy44M3oiLz4mI3hhOwkJPC9nPiYjeGE7CQk8ZyBpZD0ic2hhcGU0MTc4LTE0IiB0cmFuc2Zvcm09InRyYW5zbGF0ZSgxMy42MTgxLC05MS45MjI0KSI+JiN4YTsJCQk8dGl0bGUgaWQ9InRpdGxlNDQ5NzEiPlNoZWV0LjQxNzg8L3RpdGxlPiYjeGE7CQkJPHBhdGggaWQ9InBhdGg0NDk3MyIgaW5rc2NhcGU6Y29ubmVjdG9yLWN1cnZhdHVyZT0iMCIgc3R5bGU9ImZpbGw6I0JBRTBCRDsiIGQ9Ik0wLDE1My4xNmgxMy42MnYtMy40SDBWMTUzLjE2eiBNMjMuODMsMTQ5Ljc2ICAgICB2My40aDIwLjQzdi0zLjRIMjMuODN6Ii8+JiN4YTsJCTwvZz4mI3hhOwkJPGcgaWQ9InNoYXBlNDE3OS0xNiIgdHJhbnNmb3JtPSJ0cmFuc2xhdGUoMTMuNjE4MSwtODUuMTEzMykiPiYjeGE7CQkJPHRpdGxlIGlkPSJ0aXRsZTQ0OTc2Ij5TaGVldC40MTc5PC90aXRsZT4mI3hhOwkJCTxwYXRoIGlkPSJwYXRoNDQ5NzgiIGlua3NjYXBlOmNvbm5lY3Rvci1jdXJ2YXR1cmU9IjAiIHN0eWxlPSJmaWxsOiNCQUUwQkQ7IiBkPSJNMCwxNTMuMTZoMTMuNjJ2LTMuNEgwVjE1My4xNnogTTU0LjQ3LDE0OS43NiAgICAgdjMuNGgxMy42MnYtMy40SDU0LjQ3eiBNMjMuODMsMTUzLjE2aDIwLjQzdi0zLjRIMjMuODNMMjMuODMsMTUzLjE2eiIvPiYjeGE7CQk8L2c+JiN4YTsJCTxnIGlkPSJzaGFwZTQxODAtMTgiIHRyYW5zZm9ybT0idHJhbnNsYXRlKDEzLjYxODEsLTI3LjIzNjMpIj4mI3hhOwkJCTx0aXRsZSBpZD0idGl0bGU0NDk4MSI+U2hlZXQuNDE4MDwvdGl0bGU+JiN4YTsJCQk8cGF0aCBpZD0icGF0aDQ0OTgzIiBpbmtzY2FwZTpjb25uZWN0b3ItY3VydmF0dXJlPSIwIiBzdHlsZT0iZmlsbDojQkFFMEJEOyIgZD0iTTAsMTUzLjE2aDEzLjYydi0zLjRIMFYxNTMuMTZ6IE01NC40NywxNDkuNzYgICAgIHYzLjRoMTMuNjJ2LTMuNEg1NC40N3ogTTIzLjgzLDE1My4xNmgyMC40M3YtMy40SDIzLjgzTDIzLjgzLDE1My4xNnoiLz4mI3hhOwkJPC9nPiYjeGE7CQk8ZyBpZD0ic2hhcGU0MTgxLTIwIiB0cmFuc2Zvcm09InRyYW5zbGF0ZSgxMy42MTgxLC0yMC40MjcyKSI+JiN4YTsJCQk8dGl0bGUgaWQ9InRpdGxlNDQ5ODYiPlNoZWV0LjQxODE8L3RpdGxlPiYjeGE7CQkJPHBhdGggaWQ9InBhdGg0NDk4OCIgaW5rc2NhcGU6Y29ubmVjdG9yLWN1cnZhdHVyZT0iMCIgc3R5bGU9ImZpbGw6I0JBRTBCRDsiIGQ9Ik0wLDE1My4xNmgxMy42MnYtMy40SDBWMTUzLjE2eiBNNTQuNDcsMTQ5Ljc2ICAgICB2My40aDEzLjYydi0zLjRINTQuNDd6IE0yMy44MywxNTMuMTZoMjAuNDN2LTMuNEgyMy44M0wyMy44MywxNTMuMTZ6Ii8+JiN4YTsJCTwvZz4mI3hhOwkJPGcgaWQ9InNoYXBlNDE4Mi0yMiIgdHJhbnNmb3JtPSJ0cmFuc2xhdGUoMTMuNjE4MSwtMTMuNjE4MSkiPiYjeGE7CQkJPHRpdGxlIGlkPSJ0aXRsZTQ0OTkxIj5TaGVldC40MTgyPC90aXRsZT4mI3hhOwkJCTxwYXRoIGlkPSJwYXRoNDQ5OTMiIGlua3NjYXBlOmNvbm5lY3Rvci1jdXJ2YXR1cmU9IjAiIHN0eWxlPSJmaWxsOiNCQUUwQkQ7IiBkPSJNMCwxNTMuMTZoMTMuNjJ2LTMuNEgwVjE1My4xNnogTTU0LjQ3LDE0OS43NiAgICAgdjMuNGgxMy42MnYtMy40SDU0LjQ3eiBNMjMuODMsMTUzLjE2aDIwLjQzdi0zLjRIMjMuODNMMjMuODMsMTUzLjE2eiIvPiYjeGE7CQk8L2c+JiN4YTsJCTxnIGlkPSJzaGFwZTQxODMtMjQiIHRyYW5zZm9ybT0idHJhbnNsYXRlKDAsLTM0LjA0NTMpIj4mI3hhOwkJCTx0aXRsZSBpZD0idGl0bGU0NDk5NiI+U2hlZXQuNDE4MzwvdGl0bGU+JiN4YTsJCQk8cmVjdCBpZD0icmVjdDQ0OTk4IiB5PSIxMDUuNSIgc3R5bGU9ImZpbGw6IzVFOUM3NjsiIHdpZHRoPSI5NS4zMyIgaGVpZ2h0PSI0Ny42NiIvPiYjeGE7CQk8L2c+JiN4YTsJCTxnIGlkPSJzaGFwZTQxODQtMjYiIHRyYW5zZm9ybT0idHJhbnNsYXRlKDEwLjAwNTksLTQxLjE5MTQpIj4mI3hhOwkJCTx0aXRsZSBpZD0idGl0bGU0NTAwMSI+U2hlZXQuNDE4NDwvdGl0bGU+JiN4YTsJCQk8cGF0aCBpZD0icGF0aDQ1MDAzIiBpbmtzY2FwZTpjb25uZWN0b3ItY3VydmF0dXJlPSIwIiBzdHlsZT0iZmlsbDojRkZGRkZGOyIgZD0iTTE5LjgyLDEyNy42M3YxLjg0SDEzLjd2LTEuNTYgICAgIGMwLTIuODMtMi42My0zLjQxLTMuNzktMy40MWMtMS41MiwwLTMuNzgsMC4zNi0zLjc4LDMuODJ2MTYuNzdjMCwwLjk2LDAuMDMsMy4zNywzLjcyLDMuMzdjMy40OCwwLDMuODUtMi42NywzLjg1LTMuMzF2LTEuNjIgICAgIGg2LjEydjIuMDNjMCwyLjctMi43MSw3LjYtOS43Myw3LjZjLTEuMTYsMC0xMC4wOS0wLjEyLTEwLjA5LTcuNzR2LTE4LjA3YzAtMy4zNSwyLjg2LTcuNTUsOS45Ny03LjU1ICAgICBDMTguNjIsMTE5LjgsMTkuODIsMTI1LjgsMTkuODIsMTI3LjYzeiBNMzkuOTYsMTE5LjhjLTEwLjIsMC0xMC41MSw3Ljc1LTEwLjUxLDguOThjMCw2LjM3LDQuMDIsNy42MSw2LjY3LDguNDRsNC4zOCwxLjM4ICAgICBjMi43MywwLjk2LDMuNTQsMS4xNCwzLjU0LDQuOTdjMCwzLjk3LTEuMTUsNC44OC00LjQ0LDQuODhjLTMuNTEsMC00LjMzLTEuOTQtNC4zMy0zLjM2di0xLjQ3aC02LjEydjEuNzUgICAgIGMwLDUuNjksNi40OCw3Ljc4LDEwLjQ1LDcuNzhjOC4yMiwwLDEwLjU3LTQuNSwxMC41Ny05LjYzYzAtNi41OS0yLjg3LTcuNzktNi40My04Ljk4bC00LjY4LTEuNDNjLTMuNTUtMS4wOC0zLjMzLTIuMy0zLjM5LTIuNzQgICAgIGMtMC4wNi0wLjQ1LTAuMDktMC45OS0wLjA5LTEuNjRjMC00LjI4LDMuMy00LjI0LDQuMTQtNC4yNGMzLjgxLDAsNC4zMiwyLjg5LDQuMzIsMy45N3YxLjA1aDYuMTN2LTIuMjkgICAgIEM1MC4xNywxMjQuNzMsNDcuNDcsMTE5LjgsMzkuOTYsMTE5LjhMMzkuOTYsMTE5Ljh6IE03MS43MiwxMjAuMDdsLTQuOTMsMjIuOTFoLTAuMTJsLTQuODYtMjIuOTFoLTYuNDlsOC43MSwzMi44MWg1LjQxICAgICBsOC43Ni0zMi44MUg3MS43MnoiLz4mI3hhOwkJPC9nPiYjeGE7CQk8ZyBpZD0ic2hhcGU0MTg1LTI4IiB0cmFuc2Zvcm09InRyYW5zbGF0ZSg4MS43MDg4KSI+JiN4YTsJCQk8dGl0bGUgaWQ9InRpdGxlNDUwMDYiPlNoZWV0LjQxODU8L3RpdGxlPiYjeGE7CQkJPHBhdGggaWQ9InBhdGg0NTAwOCIgaW5rc2NhcGU6Y29ubmVjdG9yLWN1cnZhdHVyZT0iMCIgc3R5bGU9ImZpbGw6Izc4OEI5QzsiIGQ9Ik0xMC4yMSwxMTguOTR2MzEuMTFIMHYzLjExaDEzLjYydi0zNC4yMkgxMC4yMXogICAgICIvPiYjeGE7CQk8L2c+JiN4YTsJPC9nPiYjeGE7PC9nPiYjeGE7PC9zdmc+;" vertex="1" parent="1">
          <mxGeometry x="204" y="417.5" width="47.11" height="61" as="geometry" />
        </mxCell>
        <mxCell id="ludOifVa8UkIGbpV-UGc-43" value="MySQL Server" style="shape=image;verticalLabelPosition=bottom;labelBackgroundColor=#ffffff;verticalAlign=top;aspect=fixed;imageAspect=0;image=data:image/svg+xml,PHN2ZyB4bWxuczpjYz0iaHR0cDovL2NyZWF0aXZlY29tbW9ucy5vcmcvbnMjIiB4bWxuczpkYz0iaHR0cDovL3B1cmwub3JnL2RjL2VsZW1lbnRzLzEuMS8iIHhtbG5zOmlua3NjYXBlPSJodHRwOi8vd3d3Lmlua3NjYXBlLm9yZy9uYW1lc3BhY2VzL2lua3NjYXBlIiB4bWxuczpyZGY9Imh0dHA6Ly93d3cudzMub3JnLzE5OTkvMDIvMjItcmRmLXN5bnRheC1ucyMiIHhtbG5zOnNvZGlwb2RpPSJodHRwOi8vc29kaXBvZGkuc291cmNlZm9yZ2UubmV0L0RURC9zb2RpcG9kaS0wLmR0ZCIgeG1sbnM6c3ZnPSJodHRwOi8vd3d3LnczLm9yZy8yMDAwL3N2ZyIgeG1sbnM9Imh0dHA6Ly93d3cudzMub3JnLzIwMDAvc3ZnIiB4bWxuczp4bGluaz0iaHR0cDovL3d3dy53My5vcmcvMTk5OS94bGluayIgdmVyc2lvbj0iMS4xIiBpZD0ic3ZnMTAyMTA3IiBpbmtzY2FwZTp2ZXJzaW9uPSIwLjkyLjMgKDI0MDU1NDYsIDIwMTgtMDMtMTEpIiBzb2RpcG9kaTpkb2NuYW1lPSJteXNxbF8yLnN2ZyIgeD0iMHB4IiB5PSIwcHgiIHZpZXdCb3g9IjAgMCA1Mi44OCA2MC4wNyIgc3R5bGU9ImVuYWJsZS1iYWNrZ3JvdW5kOm5ldyAwIDAgNTIuODggNjAuMDc7IiB4bWw6c3BhY2U9InByZXNlcnZlIj4mI3hhOzxmaWx0ZXIgaWQ9ImZpbHRlcl8yIj4mI3hhOwk8ZmVHYXVzc2lhbkJsdXIgaWQ9ImZlR2F1c3NpYW5CbHVyMTAyMDc1IiBzdGREZXZpYXRpb249IjIiLz4mI3hhOzwvZmlsdGVyPiYjeGE7PHNvZGlwb2RpOm5hbWVkdmlldyBib3JkZXJjb2xvcj0iIzY2NjY2NiIgYm9yZGVyb3BhY2l0eT0iMSIgZml0LW1hcmdpbi1ib3R0b209IjAiIGZpdC1tYXJnaW4tbGVmdD0iMCIgZml0LW1hcmdpbi1yaWdodD0iMCIgZml0LW1hcmdpbi10b3A9IjAiIGdyaWR0b2xlcmFuY2U9IjEwIiBndWlkZXRvbGVyYW5jZT0iMTAiIGlkPSJuYW1lZHZpZXcxMDIxMDkiIGlua3NjYXBlOmN1cnJlbnQtbGF5ZXI9InN2ZzEwMjEwNyIgaW5rc2NhcGU6Y3g9IjM1LjI1IiBpbmtzY2FwZTpjeT0iNDAuMDQ1MjAxIiBpbmtzY2FwZTpwYWdlb3BhY2l0eT0iMCIgaW5rc2NhcGU6cGFnZXNoYWRvdz0iMiIgaW5rc2NhcGU6d2luZG93LWhlaWdodD0iMTAxNyIgaW5rc2NhcGU6d2luZG93LW1heGltaXplZD0iMSIgaW5rc2NhcGU6d2luZG93LXdpZHRoPSIxOTIwIiBpbmtzY2FwZTp3aW5kb3cteD0iLTgiIGlua3NjYXBlOndpbmRvdy15PSItOCIgaW5rc2NhcGU6em9vbT0iMTAuODI0NDc2IiBvYmplY3R0b2xlcmFuY2U9IjEwIiBwYWdlY29sb3I9IiNmZmZmZmYiIHNob3dncmlkPSJmYWxzZSI+JiN4YTsJPC9zb2RpcG9kaTpuYW1lZHZpZXc+JiN4YTs8ZyBpZD0iZzEwMjEwNSI+JiN4YTsJPHRpdGxlIGlkPSJ0aXRsZTEwMjA3OSI+UGFnZS0xPC90aXRsZT4mI3hhOwk8ZyBpZD0iZ3JvdXAzNjM3LTEiPiYjeGE7CQk8dGl0bGUgaWQ9InRpdGxlMTAyMDgxIj5NeVNRTCAjMjwvdGl0bGU+JiN4YTsJCTxnIGlkPSJzaGFwZTM2MzgtMiI+JiN4YTsJCQk8dGl0bGUgaWQ9InRpdGxlMTAyMDgzIj5EYXRhYmFzZSAjMjwvdGl0bGU+JiN4YTsJCQk8cGF0aCBpZD0icGF0aDEwMjA4NSIgaW5rc2NhcGU6Y29ubmVjdG9yLWN1cnZhdHVyZT0iMCIgc3R5bGU9ImZpbGw6IzNGNTc2NTsiIGQ9Ik0yNi43MSwwYzE0LjY0LDAsMjYuMTcsMy45MywyNi4xNyw4LjMxICAgICBjMCw0My41NCwwLDQzLjU0LDAsNDMuNTRjMCw0LjgzLTExLjUzLDguMjItMjYuMTcsOC4yMkMxMi4xNSw2MC4wNywwLDU2LjY4LDAsNTEuODVDMCw4LjMxLDAsOC4zMSwwLDguMzEgICAgIEMwLDMuOTMsMTIuMTUsMCwyNi43MSwweiBNMjYuNzEsMTQuMjFjMTIuNTksMCwyMi42OC0yLjk1LDIyLjY4LTUuOWMwLTIuODYtMTAuMDktNS4zNi0yMi42OC01LjM2Yy0xMi42LDAtMjIuNiwyLjUtMjIuNiw1LjM2ICAgICBDNC4xMSwxMS4yNiwxNC4xMSwxNC4yMSwyNi43MSwxNC4yMXoiLz4mI3hhOwkJPC9nPiYjeGE7CQk8ZyBpZD0ic2hhcGUzNjM5LTQiIHRyYW5zZm9ybT0idHJhbnNsYXRlKDEwLjU4OTIsLTcuMjMwNDkpIj4mI3hhOwkJCTx0aXRsZSBpZD0idGl0bGUxMDIwODgiPlNoZWV0LjM2Mzk8L3RpdGxlPiYjeGE7CQkJPGcgaWQ9InNoYWRvdzM2MzktNSIgdHJhbnNmb3JtPSJ0cmFuc2xhdGUoMC4zNDU2LDEuOTcyOCkiPiYjeGE7CQkJCTxnIGlkPSJwYXRoMTAyMDkwIiBpbmtzY2FwZTpjb25uZWN0b3ItY3VydmF0dXJlPSIwIiBzdHlsZT0iZmlsdGVyOnVybCgjZmlsdGVyXzIpOyI+JiN4YTsJCQkJCTxwYXRoIHN0eWxlPSJvcGFjaXR5OjAuMjI7ZmlsbDojNUI5QkQ1OyIgZD0iTTMyLjY3LDUyLjMyYy0xLjkxLTAuMDUtMy4zNiwwLjEzLTQuNjEsMC42NWMtMC4zNSwwLjE1LTAuOTIsMC4xNS0wLjk3LDAuNiAgICAgICBjMC4xOSwwLjIsMC4yMiwwLjUxLDAuMzgsMC43NmMwLjI5LDAuNDgsMC43OSwxLjEyLDEuMjQsMS40NmMwLjQ5LDAuMzcsMSwwLjc2LDEuNTIsMS4wOGMwLjkzLDAuNTcsMS45NywwLjksMi44NywxLjQ3ICAgICAgIGMwLjUzLDAuMzMsMS4wNiwwLjc2LDEuNTcsMS4xNGMwLjI2LDAuMTgsMC40MywwLjQ3LDAuNzYsMC41OWMwLTAuMDIsMC0wLjAzLDAtMC4wNWMtMC4xNy0wLjIyLTAuMjItMC41My0wLjM4LTAuNzYgICAgICAgYy0wLjIzLTAuMjQtMC40Ny0wLjQ3LTAuNy0wLjcxYy0wLjY5LTAuOTEtMS41Ni0xLjcxLTIuNDktMi4zOGMtMC43NS0wLjUzLTIuNC0xLjI1LTIuNzEtMi4xMWMtMC4wMi0wLjAyLTAuMDQtMC4wNC0wLjA2LTAuMDYgICAgICAgYzAuNTMtMC4wNiwxLjE0LTAuMjUsMS42My0wLjM4YzAuODEtMC4yMiwxLjU0LTAuMTYsMi4zOC0wLjM4YzAuMzgtMC4xMSwwLjc2LTAuMjEsMS4xNC0wLjMyYzAtMC4wNywwLTAuMTUsMC0wLjIyICAgICAgIGMtMC40Mi0wLjQ0LTAuNzMtMS4wMS0xLjE5LTEuNDFjLTEuMjItMS4wMy0yLjU0LTIuMDYtMy45LTIuOTNjLTAuNzYtMC40Ny0xLjctMC43OC0yLjUtMS4xOWMtMC4yNy0wLjEzLTAuNzQtMC4yLTAuOTItMC40MyAgICAgICBjLTAuNDItMC41NC0wLjY1LTEuMjItMC45Ny0xLjg0Yy0wLjY4LTEuMzEtMS4zNS0yLjc1LTEuOTYtNC4xMmMtMC40MS0wLjk0LTAuNjgtMS44Ny0xLjE5LTIuNzEgICAgICAgYy0yLjQ2LTQuMDUtNS4xMS02LjQ5LTkuMjEtOC44OWMtMC44OC0wLjUxLTEuOTMtMC43Mi0zLjA0LTAuOThjLTAuNTktMC4wNC0xLjE5LTAuMDctMS43OS0wLjExICAgICAgIGMtMC4zNi0wLjE1LTAuNzQtMC42LTEuMDgtMC44MWMtMS4zNi0wLjg2LTQuODUtMi43My01Ljg1LTAuMjdDMCwyOC41NiwxLjU5LDMwLjA3LDIuMTUsMzAuODZjMC40LDAuNTUsMC45MSwxLjE3LDEuMiwxLjc5ICAgICAgIGMwLjE4LDAuNCwwLjIyLDAuODEsMC4zOCwxLjI0YzAuMzksMS4wNiwwLjczLDIuMjIsMS4yNCwzLjJjMC4yNiwwLjUsMC41NCwxLjAyLDAuODcsMS40NmMwLjIsMC4yOCwwLjU0LDAuNCwwLjYsMC44MiAgICAgICBjLTAuMzQsMC40Ni0wLjM2LDEuMTktMC41NSwxLjc5Yy0wLjg0LDIuNjctMC41Miw1Ljk5LDAuNzEsNy45NmMwLjM4LDAuNjEsMS4yNywxLjkxLDIuNDksMS40MWMxLjA3LTAuNDMsMC44My0xLjc5LDEuMTQtMi45OCAgICAgICBjMC4wNy0wLjI3LDAuMDMtMC40NywwLjE2LTAuNjVjMCwwLjAyLDAsMC4wNCwwLDAuMDZjMC4zMywwLjY1LDAuNjUsMS4zLDAuOTgsMS45NWMwLjcyLDEuMTYsMiwyLjM3LDMuMDksMy4xOSAgICAgICBjMC41NiwwLjQzLDEsMS4xNywxLjczLDEuNDFjMC0wLjAxLDAtMC4wMywwLTAuMDVjLTAuMDIsMC0wLjAzLDAtMC4wNSwwYy0wLjE0LTAuMjItMC4zNi0wLjMxLTAuNTQtMC40OSAgICAgICBjLTAuNDMtMC40MS0wLjktMC45My0xLjI1LTEuNDFjLTAuOTktMS4zNC0xLjg2LTIuODEtMi42Ni00LjMzYy0wLjM4LTAuNzMtMC43MS0xLjU0LTEuMDMtMi4yOCAgICAgICBjLTAuMTItMC4yOS0wLjEyLTAuNzItMC4zOC0wLjg3Yy0wLjM1LDAuNTUtMC44NiwwLjk5LTEuMTMsMS42M2MtMC40NCwxLjAzLTAuNDksMi4yOC0wLjY1LDMuNTggICAgICAgYy0wLjEsMC4wMy0wLjA2LDAuMDEtMC4xMSwwLjA1Yy0wLjc2LTAuMTgtMS4wMi0wLjk2LTEuMy0xLjYzYy0wLjcxLTEuNjgtMC44NS00LjQtMC4yMi02LjM0YzAuMTYtMC41LDAuODktMi4wOCwwLjU5LTIuNTUgICAgICAgYy0wLjE0LTAuNDYtMC42LTAuNzMtMC44Ni0xLjA4Yy0wLjMyLTAuNDQtMC42NS0xLjAxLTAuODctMS41MmMtMC41OC0xLjMxLTAuODUtMi43OS0xLjQ2LTQuMTJjLTAuMy0wLjYzLTAuNzktMS4yNy0xLjItMS44NCAgICAgICBjLTAuNDQtMC42My0wLjk1LTEuMDktMS4zLTEuODRjLTAuMTItMC4yNy0wLjI5LTAuNy0wLjEtMC45OGMwLjA1LTAuMTgsMC4xNC0wLjI2LDAuMzItMC4zMmMwLjMyLTAuMjUsMS4xOSwwLjA4LDEuNTIsMC4yMSAgICAgICBjMC44NywwLjM2LDEuNTksMC43MSwyLjMzLDEuMmMwLjM1LDAuMjMsMC43MSwwLjY4LDEuMTQsMC44MWMwLjE2LDAsMC4zMiwwLDAuNDgsMGMwLjc3LDAuMTcsMS42MiwwLjA1LDIuMzQsMC4yNyAgICAgICBjMS4yNiwwLjM4LDIuMzgsMC45OCwzLjQxLDEuNjNjMy4xMiwxLjk3LDUuNjgsNC43OCw3LjQzLDguMTNjMC4yOCwwLjU0LDAuNCwxLjA1LDAuNjUsMS42MmMwLjUsMS4xNiwxLjEzLDIuMzQsMS42MiwzLjQ3ICAgICAgIGMwLjUsMS4xMywwLjk4LDIuMjYsMS42OCwzLjJjMC4zNywwLjQ5LDEuOCwwLjc2LDIuNDQsMS4wM2MwLjQ2LDAuMTksMS4yLDAuMzksMS42MywwLjY1YzAuODIsMC40OSwxLjYxLDEuMDgsMi4zOCwxLjYzICAgICAgIEMzMS40Myw1MS4yNCwzMi42MSw1MS44MywzMi42Nyw1Mi4zMnoiLz4mI3hhOwkJCQk8L2c+JiN4YTsJCQk8L2c+JiN4YTsJCQk8cGF0aCBpZD0icGF0aDEwMjA5MyIgaW5rc2NhcGU6Y29ubmVjdG9yLWN1cnZhdHVyZT0iMCIgc3R5bGU9ImZpbGw6I0ZGRkZGRjsiIGQ9Ik0zMi42Nyw1Mi4zMmMtMS45MS0wLjA1LTMuMzYsMC4xMy00LjYxLDAuNjUgICAgIGMtMC4zNSwwLjE1LTAuOTIsMC4xNS0wLjk3LDAuNmMwLjE5LDAuMiwwLjIyLDAuNTEsMC4zOCwwLjc2YzAuMjksMC40OCwwLjc5LDEuMTIsMS4yNCwxLjQ2YzAuNDksMC4zNywxLDAuNzYsMS41MiwxLjA4ICAgICBjMC45MywwLjU3LDEuOTcsMC45LDIuODcsMS40N2MwLjUzLDAuMzMsMS4wNiwwLjc2LDEuNTcsMS4xNGMwLjI2LDAuMTgsMC40MywwLjQ3LDAuNzYsMC41OWMwLTAuMDIsMC0wLjAzLDAtMC4wNSAgICAgYy0wLjE3LTAuMjItMC4yMi0wLjUzLTAuMzgtMC43NmMtMC4yMy0wLjI0LTAuNDctMC40Ny0wLjctMC43MWMtMC42OS0wLjkxLTEuNTYtMS43MS0yLjQ5LTIuMzhjLTAuNzUtMC41My0yLjQtMS4yNS0yLjcxLTIuMTEgICAgIGMtMC4wMi0wLjAyLTAuMDQtMC4wNC0wLjA2LTAuMDZjMC41My0wLjA2LDEuMTQtMC4yNSwxLjYzLTAuMzhjMC44MS0wLjIyLDEuNTQtMC4xNiwyLjM4LTAuMzhjMC4zOC0wLjExLDAuNzYtMC4yMSwxLjE0LTAuMzIgICAgIGMwLTAuMDcsMC0wLjE1LDAtMC4yMmMtMC40Mi0wLjQ0LTAuNzMtMS4wMS0xLjE5LTEuNDFjLTEuMjItMS4wMy0yLjU0LTIuMDYtMy45LTIuOTNjLTAuNzYtMC40Ny0xLjctMC43OC0yLjUtMS4xOSAgICAgYy0wLjI3LTAuMTMtMC43NC0wLjItMC45Mi0wLjQzYy0wLjQyLTAuNTQtMC42NS0xLjIyLTAuOTctMS44NGMtMC42OC0xLjMxLTEuMzUtMi43NS0xLjk2LTQuMTJjLTAuNDEtMC45NC0wLjY4LTEuODctMS4xOS0yLjcxICAgICBjLTIuNDYtNC4wNS01LjExLTYuNDktOS4yMS04Ljg5Yy0wLjg4LTAuNTEtMS45My0wLjcyLTMuMDQtMC45OGMtMC41OS0wLjA0LTEuMTktMC4wNy0xLjc5LTAuMTFjLTAuMzYtMC4xNS0wLjc0LTAuNi0xLjA4LTAuODEgICAgIGMtMS4zNi0wLjg2LTQuODUtMi43My01Ljg1LTAuMjdDMCwyOC41NiwxLjU5LDMwLjA3LDIuMTUsMzAuODZjMC40LDAuNTUsMC45MSwxLjE3LDEuMiwxLjc5YzAuMTgsMC40LDAuMjIsMC44MSwwLjM4LDEuMjQgICAgIGMwLjM5LDEuMDYsMC43MywyLjIyLDEuMjQsMy4yYzAuMjYsMC41LDAuNTQsMS4wMiwwLjg3LDEuNDZjMC4yLDAuMjgsMC41NCwwLjQsMC42LDAuODJjLTAuMzQsMC40Ni0wLjM2LDEuMTktMC41NSwxLjc5ICAgICBjLTAuODQsMi42Ny0wLjUyLDUuOTksMC43MSw3Ljk2YzAuMzgsMC42MSwxLjI3LDEuOTEsMi40OSwxLjQxYzEuMDctMC40MywwLjgzLTEuNzksMS4xNC0yLjk4YzAuMDctMC4yNywwLjAzLTAuNDcsMC4xNi0wLjY1ICAgICBjMCwwLjAyLDAsMC4wNCwwLDAuMDZjMC4zMywwLjY1LDAuNjUsMS4zLDAuOTgsMS45NWMwLjcyLDEuMTYsMiwyLjM3LDMuMDksMy4xOWMwLjU2LDAuNDMsMSwxLjE3LDEuNzMsMS40MSAgICAgYzAtMC4wMSwwLTAuMDMsMC0wLjA1Yy0wLjAyLDAtMC4wMywwLTAuMDUsMGMtMC4xNC0wLjIyLTAuMzYtMC4zMS0wLjU0LTAuNDljLTAuNDMtMC40MS0wLjktMC45My0xLjI1LTEuNDEgICAgIGMtMC45OS0xLjM0LTEuODYtMi44MS0yLjY2LTQuMzNjLTAuMzgtMC43My0wLjcxLTEuNTQtMS4wMy0yLjI4Yy0wLjEyLTAuMjktMC4xMi0wLjcyLTAuMzgtMC44N2MtMC4zNSwwLjU1LTAuODYsMC45OS0xLjEzLDEuNjMgICAgIGMtMC40NCwxLjAzLTAuNDksMi4yOC0wLjY1LDMuNThjLTAuMSwwLjAzLTAuMDYsMC4wMS0wLjExLDAuMDVjLTAuNzYtMC4xOC0xLjAyLTAuOTYtMS4zLTEuNjNjLTAuNzEtMS42OC0wLjg1LTQuNC0wLjIyLTYuMzQgICAgIGMwLjE2LTAuNSwwLjg5LTIuMDgsMC41OS0yLjU1Yy0wLjE0LTAuNDYtMC42LTAuNzMtMC44Ni0xLjA4Yy0wLjMyLTAuNDQtMC42NS0xLjAxLTAuODctMS41MmMtMC41OC0xLjMxLTAuODUtMi43OS0xLjQ2LTQuMTIgICAgIGMtMC4zLTAuNjMtMC43OS0xLjI3LTEuMi0xLjg0Yy0wLjQ0LTAuNjMtMC45NS0xLjA5LTEuMy0xLjg0Yy0wLjEyLTAuMjctMC4yOS0wLjctMC4xLTAuOThjMC4wNS0wLjE4LDAuMTQtMC4yNiwwLjMyLTAuMzIgICAgIGMwLjMyLTAuMjUsMS4xOSwwLjA4LDEuNTIsMC4yMWMwLjg3LDAuMzYsMS41OSwwLjcxLDIuMzMsMS4yYzAuMzUsMC4yMywwLjcxLDAuNjgsMS4xNCwwLjgxYzAuMTYsMCwwLjMyLDAsMC40OCwwICAgICBjMC43NywwLjE3LDEuNjIsMC4wNSwyLjM0LDAuMjdjMS4yNiwwLjM4LDIuMzgsMC45OCwzLjQxLDEuNjNjMy4xMiwxLjk3LDUuNjgsNC43OCw3LjQzLDguMTNjMC4yOCwwLjU0LDAuNCwxLjA1LDAuNjUsMS42MiAgICAgYzAuNSwxLjE2LDEuMTMsMi4zNCwxLjYyLDMuNDdjMC41LDEuMTMsMC45OCwyLjI2LDEuNjgsMy4yYzAuMzcsMC40OSwxLjgsMC43NiwyLjQ0LDEuMDNjMC40NiwwLjE5LDEuMiwwLjM5LDEuNjMsMC42NSAgICAgYzAuODIsMC40OSwxLjYxLDEuMDgsMi4zOCwxLjYzQzMxLjQzLDUxLjI0LDMyLjYxLDUxLjgzLDMyLjY3LDUyLjMyeiIvPiYjeGE7CQk8L2c+JiN4YTsJCTxnIGlkPSJzaGFwZTM2NDAtOSIgdHJhbnNmb3JtPSJ0cmFuc2xhdGUoMTguMDU0MiwtMzMuMzU2NSkiPiYjeGE7CQkJPHRpdGxlIGlkPSJ0aXRsZTEwMjA5NiI+U2hlZXQuMzY0MDwvdGl0bGU+JiN4YTsJCQk8ZyBpZD0ic2hhZG93MzY0MC0xMCIgdHJhbnNmb3JtPSJ0cmFuc2xhdGUoMC4zNDU2LDEuOTcyOCkiPiYjeGE7CQkJCTxnIGlkPSJwYXRoMTAyMDk4IiBpbmtzY2FwZTpjb25uZWN0b3ItY3VydmF0dXJlPSIwIiBzdHlsZT0iZmlsdGVyOnVybCgjZmlsdGVyXzIpOyI+JiN4YTsJCQkJCTxwYXRoIHN0eWxlPSJvcGFjaXR5OjAuMjI7ZmlsbDojNUI5QkQ1OyIgZD0iTTAuOTgsNTcuOEMwLjU4LDU3Ljc5LDAuMyw1Ny44NCwwLDU3LjljMCwwLjAyLDAsMC4wNCwwLDAuMDYgICAgICAgYzAuMDIsMCwwLjA0LDAsMC4wNSwwYzAuMTksMC4zOSwwLjUzLDAuNjQsMC43NiwwLjk3YzAuMTgsMC4zOCwwLjM2LDAuNzYsMC41NSwxLjE0YzAuMDEtMC4wMiwwLjAzLTAuMDMsMC4wNS0wLjA1ICAgICAgIGMwLjMzLTAuMjQsMC40OS0wLjYyLDAuNDktMS4xOWMtMC4xNC0wLjE1LTAuMTYtMC4zMi0wLjI3LTAuNDlDMS40Nyw1OC4xMSwxLjE3LDU3Ljk4LDAuOTgsNTcuOHoiLz4mI3hhOwkJCQk8L2c+JiN4YTsJCQk8L2c+JiN4YTsJCQk8cGF0aCBpZD0icGF0aDEwMjEwMSIgaW5rc2NhcGU6Y29ubmVjdG9yLWN1cnZhdHVyZT0iMCIgc3R5bGU9ImZpbGw6I0ZGRkZGRjsiIGQ9Ik0wLjk4LDU3LjhDMC41OCw1Ny43OSwwLjMsNTcuODQsMCw1Ny45ICAgICBjMCwwLjAyLDAsMC4wNCwwLDAuMDZjMC4wMiwwLDAuMDQsMCwwLjA1LDBjMC4xOSwwLjM5LDAuNTMsMC42NCwwLjc2LDAuOTdjMC4xOCwwLjM4LDAuMzYsMC43NiwwLjU1LDEuMTQgICAgIGMwLjAxLTAuMDIsMC4wMy0wLjAzLDAuMDUtMC4wNWMwLjMzLTAuMjQsMC40OS0wLjYyLDAuNDktMS4xOWMtMC4xNC0wLjE1LTAuMTYtMC4zMi0wLjI3LTAuNDlDMS40Nyw1OC4xMSwxLjE3LDU3Ljk4LDAuOTgsNTcuOHogICAgICIvPiYjeGE7CQk8L2c+JiN4YTsJPC9nPiYjeGE7PC9nPiYjeGE7PC9zdmc+;strokeColor=#000000;" vertex="1" parent="1">
          <mxGeometry x="374" y="175" width="34.01" height="38.5" as="geometry" />
        </mxCell>
        <mxCell id="ludOifVa8UkIGbpV-UGc-44" value="Git Repository with all the upto-date&#xa;code check-in&#39;s&#xa;https://github.com/x22114386/Project_DataBase_DataAnalytics" style="shape=image;verticalLabelPosition=bottom;labelBackgroundColor=#ffffff;verticalAlign=top;aspect=fixed;imageAspect=0;image=data:image/svg+xml,PHN2ZyB4bWxuczpjYz0iaHR0cDovL2NyZWF0aXZlY29tbW9ucy5vcmcvbnMjIiB4bWxuczpkYz0iaHR0cDovL3B1cmwub3JnL2RjL2VsZW1lbnRzLzEuMS8iIHhtbG5zOmlua3NjYXBlPSJodHRwOi8vd3d3Lmlua3NjYXBlLm9yZy9uYW1lc3BhY2VzL2lua3NjYXBlIiB4bWxuczpyZGY9Imh0dHA6Ly93d3cudzMub3JnLzE5OTkvMDIvMjItcmRmLXN5bnRheC1ucyMiIHhtbG5zOnNvZGlwb2RpPSJodHRwOi8vc29kaXBvZGkuc291cmNlZm9yZ2UubmV0L0RURC9zb2RpcG9kaS0wLmR0ZCIgeG1sbnM6c3ZnPSJodHRwOi8vd3d3LnczLm9yZy8yMDAwL3N2ZyIgeG1sbnM9Imh0dHA6Ly93d3cudzMub3JnLzIwMDAvc3ZnIiB4bWxuczp4bGluaz0iaHR0cDovL3d3dy53My5vcmcvMTk5OS94bGluayIgdmVyc2lvbj0iMS4xIiBpZD0ic3ZnMTc1NjcxIiBpbmtzY2FwZTp2ZXJzaW9uPSIwLjkyLjMgKDI0MDU1NDYsIDIwMTgtMDMtMTEpIiBzb2RpcG9kaTpkb2NuYW1lPSJnaXRodWIuc3ZnIiB4PSIwcHgiIHk9IjBweCIgdmlld0JveD0iMCAwIDQ1LjI3IDQ1LjI5IiBzdHlsZT0iZW5hYmxlLWJhY2tncm91bmQ6bmV3IDAgMCA0NS4yNyA0NS4yOTsiIHhtbDpzcGFjZT0icHJlc2VydmUiPiYjeGE7PHNvZGlwb2RpOm5hbWVkdmlldyBib3JkZXJjb2xvcj0iIzY2NjY2NiIgYm9yZGVyb3BhY2l0eT0iMSIgZml0LW1hcmdpbi1ib3R0b209IjAiIGZpdC1tYXJnaW4tbGVmdD0iMCIgZml0LW1hcmdpbi1yaWdodD0iMCIgZml0LW1hcmdpbi10b3A9IjAiIGdyaWR0b2xlcmFuY2U9IjEwIiBndWlkZXRvbGVyYW5jZT0iMTAiIGlkPSJuYW1lZHZpZXcxNzU2NzMiIGlua3NjYXBlOmN1cnJlbnQtbGF5ZXI9InN2ZzE3NTY3MSIgaW5rc2NhcGU6Y3g9IjMwLjE3ODAyNSIgaW5rc2NhcGU6Y3k9IjMwLjE5NDMxOSIgaW5rc2NhcGU6cGFnZW9wYWNpdHk9IjAiIGlua3NjYXBlOnBhZ2VzaGFkb3c9IjIiIGlua3NjYXBlOndpbmRvdy1oZWlnaHQ9IjEwMTciIGlua3NjYXBlOndpbmRvdy1tYXhpbWl6ZWQ9IjEiIGlua3NjYXBlOndpbmRvdy13aWR0aD0iMTkyMCIgaW5rc2NhcGU6d2luZG93LXg9Ii04IiBpbmtzY2FwZTp3aW5kb3cteT0iLTgiIGlua3NjYXBlOnpvb209IjEwLjA5NTE1OCIgb2JqZWN0dG9sZXJhbmNlPSIxMCIgcGFnZWNvbG9yPSIjZmZmZmZmIiBzaG93Z3JpZD0iZmFsc2UiPiYjeGE7CTwvc29kaXBvZGk6bmFtZWR2aWV3PiYjeGE7PGcgaWQ9ImcxNzU2NjkiIHRyYW5zZm9ybT0idHJhbnNsYXRlKC05LjU2MjU0MTcsLTkuNTYxMzEpIj4mI3hhOwk8dGl0bGUgaWQ9InRpdGxlMTc1NjU5Ij5QYWdlLTE8L3RpdGxlPiYjeGE7CTxnIGlkPSJncm91cDIyNTAtMSIgdHJhbnNmb3JtPSJ0cmFuc2xhdGUoOS41NjMwOCwtOS4zNzg2OSkiPiYjeGE7CQk8dGl0bGUgaWQ9InRpdGxlMTc1NjYxIj5HaXRIdWI8L3RpdGxlPiYjeGE7CQk8ZyBpZD0ic2hhcGUyMjUxLTIiPiYjeGE7CQkJPHRpdGxlIGlkPSJ0aXRsZTE3NTY2MyI+U2hlZXQuMjI1MTwvdGl0bGU+JiN4YTsJCQk8cGF0aCBpZD0icGF0aDE3NTY2NSIgaW5rc2NhcGU6Y29ubmVjdG9yLWN1cnZhdHVyZT0iMCIgZD0iTTIyLjYzLDE4Ljk0QzEwLjE0LDE4Ljk0LDAsMjkuMzMsMCw0Mi4xNSAgICAgYy0wLjA3LDkuODksNi4xNSwxOC43MywxNS40OCwyMi4wMWMxLjEzLDAuMjIsMS41NC0wLjUsMS41NC0xLjExYzAtMC42MiwwLTIuMDEsMC0zLjk1Yy02LjI5LDEuNDEtNy42Mi0zLjExLTcuNjItMy4xMSAgICAgYy0xLjAzLTIuNjgtMi41MS0zLjQtMi41MS0zLjRjLTIuMDYtMS40MSwwLjE1LTEuNDEsMC4xNS0xLjQxYzIuMjcsMC4xNiwzLjQ3LDIuMzksMy40NywyLjM5YzIuMDIsMy41NCw1LjMsMi41Miw2LjU4LDEuOTMgICAgIGMwLjEtMS4xNywwLjYtMi4yNiwxLjQyLTMuMUMxMy40OCw1MS44MSw4LjIsNDkuODIsOC4yLDQwLjkyYy0wLjA0LTIuMjksMC43OS00LjUxLDIuMzItNi4yMmMtMC42OS0yLTAuNjEtNC4xOSwwLjIyLTYuMTQgICAgIGMwLDAsMS45MS0wLjYyLDYuMjMsMi40YzMuNy0xLjA0LDcuNjItMS4wNCwxMS4zMiwwYzQuMzItMyw2LjIyLTIuMzcsNi4yMi0yLjM3YzAuODMsMS45NSwwLjkxLDQuMTQsMC4yMiw2LjE0ICAgICBjMS41MywxLjcsMi4zNywzLjkzLDIuMzMsNi4yMmMwLDguOTEtNS4yOSwxMC44OC0xMC4zMywxMS40NWMwLjgxLDAuNzEsMS41MywyLjEyLDEuNTMsNC4zYzAsMy4xMSwwLDUuNjEsMCw2LjM3ICAgICBjMCwwLjYyLDAuNDEsMS4zNCwxLjU2LDEuMTJjOS4zMy0zLjMsMTUuNTMtMTIuMTUsMTUuNDUtMjIuMDRDNDUuMjcsMjkuMzMsMzUuMTMsMTguOTQsMjIuNjMsMTguOTR6Ii8+JiN4YTsJCTwvZz4mI3hhOwk8L2c+JiN4YTs8L2c+JiN4YTs8L3N2Zz4=;strokeColor=#000000;" vertex="1" parent="1">
          <mxGeometry x="927" y="81.5" width="45" height="45" as="geometry" />
        </mxCell>
        <mxCell id="ludOifVa8UkIGbpV-UGc-53" value="merged data set&lt;br&gt;into the postgres Sql" style="edgeStyle=orthogonalEdgeStyle;rounded=0;orthogonalLoop=1;jettySize=auto;html=1;entryX=0.904;entryY=0.717;entryDx=0;entryDy=0;entryPerimeter=0;strokeColor=#000000;" edge="1" parent="1" source="ludOifVa8UkIGbpV-UGc-46" target="ludOifVa8UkIGbpV-UGc-16">
          <mxGeometry relative="1" as="geometry" />
        </mxCell>
        <mxCell id="ludOifVa8UkIGbpV-UGc-46" value="data Visualization" style="shape=image;verticalLabelPosition=bottom;labelBackgroundColor=#ffffff;verticalAlign=top;aspect=fixed;imageAspect=0;image=data:image/svg+xml,PHN2ZyB4bWxuczpjYz0iaHR0cDovL2NyZWF0aXZlY29tbW9ucy5vcmcvbnMjIiB4bWxuczpkYz0iaHR0cDovL3B1cmwub3JnL2RjL2VsZW1lbnRzLzEuMS8iIHhtbG5zOmlua3NjYXBlPSJodHRwOi8vd3d3Lmlua3NjYXBlLm9yZy9uYW1lc3BhY2VzL2lua3NjYXBlIiB4bWxuczpyZGY9Imh0dHA6Ly93d3cudzMub3JnLzE5OTkvMDIvMjItcmRmLXN5bnRheC1ucyMiIHhtbG5zOnNvZGlwb2RpPSJodHRwOi8vc29kaXBvZGkuc291cmNlZm9yZ2UubmV0L0RURC9zb2RpcG9kaS0wLmR0ZCIgeG1sbnM6c3ZnPSJodHRwOi8vd3d3LnczLm9yZy8yMDAwL3N2ZyIgeG1sbnM9Imh0dHA6Ly93d3cudzMub3JnLzIwMDAvc3ZnIiB4bWxuczp4bGluaz0iaHR0cDovL3d3dy53My5vcmcvMTk5OS94bGluayIgdmVyc2lvbj0iMS4xIiBpZD0ic3ZnOTExNjciIGlua3NjYXBlOnZlcnNpb249IjAuOTIuMyAoMjQwNTU0NiwgMjAxOC0wMy0xMSkiIHNvZGlwb2RpOmRvY25hbWU9Im1pY3Jvc29mdF9wbGFubmVyLnN2ZyIgeD0iMHB4IiB5PSIwcHgiIHZpZXdCb3g9IjAgMCAxMTQuMzggNjQuODgiIHN0eWxlPSJlbmFibGUtYmFja2dyb3VuZDpuZXcgMCAwIDExNC4zOCA2NC44ODsiIHhtbDpzcGFjZT0icHJlc2VydmUiPiYjeGE7PHNvZGlwb2RpOm5hbWVkdmlldyBib3JkZXJjb2xvcj0iIzY2NjY2NiIgYm9yZGVyb3BhY2l0eT0iMSIgZml0LW1hcmdpbi1ib3R0b209IjAiIGZpdC1tYXJnaW4tbGVmdD0iMCIgZml0LW1hcmdpbi1yaWdodD0iMCIgZml0LW1hcmdpbi10b3A9IjAiIGdyaWR0b2xlcmFuY2U9IjEwIiBndWlkZXRvbGVyYW5jZT0iMTAiIGlkPSJuYW1lZHZpZXc5MTE2OSIgaW5rc2NhcGU6Y3VycmVudC1sYXllcj0ic3ZnOTExNjciIGlua3NjYXBlOmN4PSI3Ni4yNTAxOTgiIGlua3NjYXBlOmN5PSI0My4yNTU1OTIiIGlua3NjYXBlOnBhZ2VvcGFjaXR5PSIwIiBpbmtzY2FwZTpwYWdlc2hhZG93PSIyIiBpbmtzY2FwZTp3aW5kb3ctaGVpZ2h0PSIxMDE3IiBpbmtzY2FwZTp3aW5kb3ctbWF4aW1pemVkPSIxIiBpbmtzY2FwZTp3aW5kb3ctd2lkdGg9IjE5MjAiIGlua3NjYXBlOndpbmRvdy14PSItOCIgaW5rc2NhcGU6d2luZG93LXk9Ii04IiBpbmtzY2FwZTp6b29tPSI5LjkyNDYwMyIgb2JqZWN0dG9sZXJhbmNlPSIxMCIgcGFnZWNvbG9yPSIjZmZmZmZmIiBzaG93Z3JpZD0iZmFsc2UiPiYjeGE7CTwvc29kaXBvZGk6bmFtZWR2aWV3PiYjeGE7PGcgaWQ9Imc5MTE2NSIgdHJhbnNmb3JtPSJ0cmFuc2xhdGUoLTAuMzE4NzUsLTAuMzIxNTAzMDUpIj4mI3hhOwk8dGl0bGUgaWQ9InRpdGxlOTA4ODIiPlBhZ2UtMTwvdGl0bGU+JiN4YTsJPGcgaWQ9Imdyb3VwNzQ0Mi0xIiB0cmFuc2Zvcm09InRyYW5zbGF0ZSgwLjMxODc1LC0wLjMxODc1KSI+JiN4YTsJCTx0aXRsZSBpZD0idGl0bGU5MDg4NCI+TWljcm9zb2Z0IFBsYW5uZXI8L3RpdGxlPiYjeGE7CQk8ZyBpZD0ic2hhcGU3NDQzLTIiIHRyYW5zZm9ybT0idHJhbnNsYXRlKDE1Ljk1NjUsLTYuMzQ0MDIpIj4mI3hhOwkJCTx0aXRsZSBpZD0idGl0bGU5MDg4NiI+U2hlZXQuNzQ0MzwvdGl0bGU+JiN4YTsJCQk8cGF0aCBpZD0icGF0aDkwODg4IiBpbmtzY2FwZTpjb25uZWN0b3ItY3VydmF0dXJlPSIwIiBzdHlsZT0iZmlsbDojRTBFMEUwOyIgZD0iTTgyLjIyLDkuNDl2NTYuMDNIMFY5LjQ5SDgyLjIyeiIvPiYjeGE7CQk8L2c+JiN4YTsJCTxnIGlkPSJzaGFwZTc0NDQtNCIgdHJhbnNmb3JtPSJ0cmFuc2xhdGUoMzguNjQyNywtMjcuMTcyNykiPiYjeGE7CQkJPHRpdGxlIGlkPSJ0aXRsZTkwODkxIj5TaGVldC43NDQ0PC90aXRsZT4mI3hhOwkJPC9nPiYjeGE7CQk8ZyBpZD0ic2hhcGU3NDQ1LTUiIHRyYW5zZm9ybT0idHJhbnNsYXRlKDE0LjUwNSwtNi42Njg4MykiPiYjeGE7CQkJPHRpdGxlIGlkPSJ0aXRsZTkwODk0Ij5TaGVldC43NDQ1PC90aXRsZT4mI3hhOwkJCTxwYXRoIGlkPSJwYXRoOTA4OTYiIGlua3NjYXBlOmNvbm5lY3Rvci1jdXJ2YXR1cmU9IjAiIHN0eWxlPSJmaWxsOiM3NTc1NzU7IiBkPSJNMTcuODQsNjUuNTJIMFYxNS45NiAgICAgYzAtMS4xMiwwLjkxLTIuMDQsMi4wNC0yLjA0aDE1LjhWNjUuNTJ6Ii8+JiN4YTsJCTwvZz4mI3hhOwkJPGcgaWQ9InNoYXBlNzQ0Ni03IiB0cmFuc2Zvcm09InRyYW5zbGF0ZSgzNC4yMDY5LC00Ny4wMDY2KSI+JiN4YTsJCQk8dGl0bGUgaWQ9InRpdGxlOTA4OTkiPlNoZWV0Ljc0NDY8L3RpdGxlPiYjeGE7CQkJPHBhdGggaWQ9InBhdGg5MDkwMSIgaW5rc2NhcGU6Y29ubmVjdG9yLWN1cnZhdHVyZT0iMCIgc3R5bGU9ImZpbGw6I0YyODIzNjsiIGQ9Ik0xNC4wOSw2NS41MkgwVjU4aDE0LjF2Ny41MkgxNC4wOXoiLz4mI3hhOwkJPC9nPiYjeGE7CQk8ZyBpZD0ic2hhcGU3NDQ3LTkiIHRyYW5zZm9ybT0idHJhbnNsYXRlKDQ5Ljc1NzQsLTQ3LjAwNjYpIj4mI3hhOwkJCTx0aXRsZSBpZD0idGl0bGU5MDkwNCI+U2hlZXQuNzQ0NzwvdGl0bGU+JiN4YTsJCQk8cGF0aCBpZD0icGF0aDkwOTA2IiBpbmtzY2FwZTpjb25uZWN0b3ItY3VydmF0dXJlPSIwIiBzdHlsZT0iZmlsbDojNTRBRkUyOyIgZD0iTTE0LjEsNjUuNTJIMFY1OGgxNC4xVjY1LjUyeiIvPiYjeGE7CQk8L2c+JiN4YTsJCTxnIGlkPSJzaGFwZTc0NDgtMTEiIHRyYW5zZm9ybT0idHJhbnNsYXRlKDY1LjMxOCwtNDcuMDA2NikiPiYjeGE7CQkJPHRpdGxlIGlkPSJ0aXRsZTkwOTA5Ij5TaGVldC43NDQ4PC90aXRsZT4mI3hhOwkJCTxwYXRoIGlkPSJwYXRoOTA5MTEiIGlua3NjYXBlOmNvbm5lY3Rvci1jdXJ2YXR1cmU9IjAiIHN0eWxlPSJmaWxsOiMyMTk1RjM7IiBkPSJNMTQuMSw2NS41MkgwVjU4aDE0LjFWNjUuNTJ6Ii8+JiN4YTsJCTwvZz4mI3hhOwkJPGcgaWQ9InNoYXBlNzQ0OS0xMyIgdHJhbnNmb3JtPSJ0cmFuc2xhdGUoODAuOTgwMSwtNDcuMDA2NikiPiYjeGE7CQkJPHRpdGxlIGlkPSJ0aXRsZTkwOTE0Ij5TaGVldC43NDQ5PC90aXRsZT4mI3hhOwkJCTxwYXRoIGlkPSJwYXRoOTA5MTYiIGlua3NjYXBlOmNvbm5lY3Rvci1jdXJ2YXR1cmU9IjAiIHN0eWxlPSJmaWxsOiM0MjQyNDI7IiBkPSJNMTQuMSw2NS41MkgwVjU4aDE0LjFWNjUuNTJ6Ii8+JiN4YTsJCTwvZz4mI3hhOwkJPGcgaWQ9InNoYXBlNzQ1MC0xNSIgdHJhbnNmb3JtPSJ0cmFuc2xhdGUoMTUuOTY2NiwtNTMuMTk4NCkiPiYjeGE7CQkJPHRpdGxlIGlkPSJ0aXRsZTkwOTE5Ij5TaGVldC43NDUwPC90aXRsZT4mI3hhOwkJCTxwYXRoIGlkPSJwYXRoOTA5MjEiIGlua3NjYXBlOmNvbm5lY3Rvci1jdXJ2YXR1cmU9IjAiIHN0eWxlPSJmaWxsOiM0MjQyNDI7IiBkPSJNMTYuMzcsNjUuNTJIMHYtMi45NmgxNi4zN1Y2NS41MnoiLz4mI3hhOwkJPC9nPiYjeGE7CQk8ZyBpZD0ic2hhcGU3NDUxLTE3IiB0cmFuc2Zvcm09InRyYW5zbGF0ZSg2MC45NzM2LC00LjIyMjU4KSI+JiN4YTsJCQk8dGl0bGUgaWQ9InRpdGxlOTA5MjQiPlNoZWV0Ljc0NTE8L3RpdGxlPiYjeGE7CQkJPHBhdGggaWQ9InBhdGg5MDkyNiIgaW5rc2NhcGU6Y29ubmVjdG9yLWN1cnZhdHVyZT0iMCIgc3R5bGU9ImZpbGw6I0UwRTBFMDsiIGQ9Ik0xMS4wMyw2NS41Mkgwdi05LjQ5aDExLjAzVjY1LjUyeiIvPiYjeGE7CQk8L2c+JiN4YTsJCTxnIGlkPSJzaGFwZTc0NTItMTkiIHRyYW5zZm9ybT0idHJhbnNsYXRlKDM0LjM3OTUsLTM0LjI0NzUpIj4mI3hhOwkJCTx0aXRsZSBpZD0idGl0bGU5MDkyOSI+U2hlZXQuNzQ1MjwvdGl0bGU+JiN4YTsJCQk8cGF0aCBpZD0icGF0aDkwOTMxIiBpbmtzY2FwZTpjb25uZWN0b3ItY3VydmF0dXJlPSIwIiBzdHlsZT0iZmlsbDojRkZGRkZGOyIgZD0iTTIxLjY1LDY1LjUySDBWNTQuNzNoMjEuNjVWNjUuNTJ6Ii8+JiN4YTsJCTwvZz4mI3hhOwkJPGcgaWQ9InNoYXBlNzQ1My0yMSIgdHJhbnNmb3JtPSJ0cmFuc2xhdGUoNTguMTUxOCwtMzguODQ1NykiPiYjeGE7CQkJPHRpdGxlIGlkPSJ0aXRsZTkwOTM0Ij5TaGVldC43NDUzPC90aXRsZT4mI3hhOwkJCTxwYXRoIGlkPSJwYXRoOTA5MzYiIGlua3NjYXBlOmNvbm5lY3Rvci1jdXJ2YXR1cmU9IjAiIHN0eWxlPSJmaWxsOiNGRkZGRkY7IiBkPSJNMjEuMTQsNjUuNTJIMHYtNi4xOWgyMS4xNFY2NS41MnoiLz4mI3hhOwkJPC9nPiYjeGE7CQk8ZyBpZD0ic2hhcGU3NDU0LTIzIiB0cmFuc2Zvcm09InRyYW5zbGF0ZSg1OC4xNTE4LC0zMS41ODgxKSI+JiN4YTsJCQk8dGl0bGUgaWQ9InRpdGxlOTA5MzkiPlNoZWV0Ljc0NTQ8L3RpdGxlPiYjeGE7CQkJPHBhdGggaWQ9InBhdGg5MDk0MSIgaW5rc2NhcGU6Y29ubmVjdG9yLWN1cnZhdHVyZT0iMCIgc3R5bGU9ImZpbGw6I0ZGRkZGRjsiIGQ9Ik0yMS4xNCw2NS41Mkgwdi02LjE5aDIxLjE0VjY1LjUyeiIvPiYjeGE7CQk8L2c+JiN4YTsJCTxnIGlkPSJzaGFwZTc0NTUtMjUiIHRyYW5zZm9ybT0idHJhbnNsYXRlKDM0LjM3OTUsLTIxLjk0NTIpIj4mI3hhOwkJCTx0aXRsZSBpZD0idGl0bGU5MDk0NCI+U2hlZXQuNzQ1NTwvdGl0bGU+JiN4YTsJCQk8cGF0aCBpZD0icGF0aDkwOTQ2IiBpbmtzY2FwZTpjb25uZWN0b3ItY3VydmF0dXJlPSIwIiBzdHlsZT0iZmlsbDojRkZGRkZGOyIgZD0iTTIxLjY1LDY1LjUySDB2LTEwLjhoMjEuNjVWNjUuNTJ6Ii8+JiN4YTsJCTwvZz4mI3hhOwkJPGcgaWQ9InNoYXBlNzQ1Ni0yNyIgdHJhbnNmb3JtPSJ0cmFuc2xhdGUoNTguMTUxOCwtMjQuODg4OCkiPiYjeGE7CQkJPHRpdGxlIGlkPSJ0aXRsZTkwOTQ5Ij5TaGVldC43NDU2PC90aXRsZT4mI3hhOwkJCTxwYXRoIGlkPSJwYXRoOTA5NTEiIGlua3NjYXBlOmNvbm5lY3Rvci1jdXJ2YXR1cmU9IjAiIHN0eWxlPSJmaWxsOiNGRkZGRkY7IiBkPSJNMjEuMTQsNjUuNTJIMFY2MC4xaDIxLjE0VjY1LjUyeiIvPiYjeGE7CQk8L2c+JiN4YTsJCTxnIGlkPSJzaGFwZTc0NTctMjkiIHRyYW5zZm9ybT0idHJhbnNsYXRlKDM0LjQ1MDUsLTE0Ljc4OTIpIj4mI3hhOwkJCTx0aXRsZSBpZD0idGl0bGU5MDk1NCI+U2hlZXQuNzQ1NzwvdGl0bGU+JiN4YTsJCQk8cGF0aCBpZD0icGF0aDkwOTU2IiBpbmtzY2FwZTpjb25uZWN0b3ItY3VydmF0dXJlPSIwIiBzdHlsZT0iZmlsbDojRkZGRkZGOyIgZD0iTTIxLjQ5LDY1LjUySDBWNjAuMWgyMS40OVY2NS41MnoiLz4mI3hhOwkJPC9nPiYjeGE7CQk8ZyBpZD0ic2hhcGU3NDU4LTMxIiB0cmFuc2Zvcm09InRyYW5zbGF0ZSgxNS40MDgzLC01Ni4xMjE3KSI+JiN4YTsJCQk8dGl0bGUgaWQ9InRpdGxlOTA5NTkiPlNoZWV0Ljc0NTg8L3RpdGxlPiYjeGE7CQkJPHBhdGggaWQ9InBhdGg5MDk2MSIgaW5rc2NhcGU6Y29ubmVjdG9yLWN1cnZhdHVyZT0iMCIgc3R5bGU9ImZpbGw6I0ZGRkZGRjsiIGQ9Ik04My45Myw2NS41Mkgwdi03LjAxaDgzLjkzVjY1LjUyeiIvPiYjeGE7CQk8L2c+JiN4YTsJCTxnIGlkPSJzaGFwZTc0NTktMzMiPiYjeGE7CQkJPHRpdGxlIGlkPSJ0aXRsZTkwOTY0Ij5TaGVldC43NDU5PC90aXRsZT4mI3hhOwkJCTxwYXRoIGlkPSJwYXRoOTA5NjYiIGlua3NjYXBlOmNvbm5lY3Rvci1jdXJ2YXR1cmU9IjAiIHN0eWxlPSJmaWxsOiM3NTc1NzU7IiBkPSJNMTE0LjM4LDYwLjgydjEuNTVjMCwxLjc0LTEuMzYsMy4xNS0zLjAyLDMuMTUgICAgIEgzLjAxQzEuMzUsNjUuNTIsMCw2NC4xMSwwLDYyLjM3di0xLjU1SDExNC4zOHoiLz4mI3hhOwkJPC9nPiYjeGE7CQk8ZyBpZD0ic2hhcGU3NDYwLTM1IiB0cmFuc2Zvcm09InRyYW5zbGF0ZSg0NC40OTk1LC0xLjcwNTI3KSI+JiN4YTsJCQk8dGl0bGUgaWQ9InRpdGxlOTA5NjkiPlNoZWV0Ljc0NjA8L3RpdGxlPiYjeGE7CQkJPHBhdGggaWQ9InBhdGg5MDk3MSIgaW5rc2NhcGU6Y29ubmVjdG9yLWN1cnZhdHVyZT0iMCIgc3R5bGU9ImZpbGw6IzQyNDI0MjsiIGQ9Ik0yNS42MSw2NC44OGMwLDAuMzUtMC4yNSwwLjY0LTAuNTgsMC42NEgwLjU3ICAgICBDMC4yNSw2NS41MiwwLDY1LjIzLDAsNjQuODhjMC0wLjM2LDAuMjUtMC42NCwwLjU3LTAuNjRoMjQuNDZDMjUuMzYsNjQuMjMsMjUuNjEsNjQuNTIsMjUuNjEsNjQuODh6Ii8+JiN4YTsJCTwvZz4mI3hhOwkJPGcgaWQ9InNoYXBlNzQ2MS0zNyIgdHJhbnNmb3JtPSJ0cmFuc2xhdGUoODEuMjEzNiwtMzQuMjc4KSI+JiN4YTsJCQk8dGl0bGUgaWQ9InRpdGxlOTA5NzQiPlNoZWV0Ljc0NjE8L3RpdGxlPiYjeGE7CQkJPHBhdGggaWQ9InBhdGg5MDk3NiIgaW5rc2NhcGU6Y29ubmVjdG9yLWN1cnZhdHVyZT0iMCIgc3R5bGU9ImZpbGw6I0ZGRkZGRjsiIGQ9Ik0xMy43Myw2NS41Mkgwdi0xMC44aDEzLjczVjY1LjUyeiIvPiYjeGE7CQk8L2c+JiN4YTsJCTxnIGlkPSJzaGFwZTc0NjItMzkiIHRyYW5zZm9ybT0idHJhbnNsYXRlKDgyLjAxNTQsLTQwLjQzOTMpIj4mI3hhOwkJCTx0aXRsZSBpZD0idGl0bGU5MDk3OSI+U2hlZXQuNzQ2MjwvdGl0bGU+JiN4YTsJCQk8cGF0aCBpZD0icGF0aDkwOTgxIiBpbmtzY2FwZTpjb25uZWN0b3ItY3VydmF0dXJlPSIwIiBzdHlsZT0iZmlsbDojRTBFMEUwOyIgZD0iTTEwLjMsNjUuNTJIMHYtMS4wNGgxMC4zVjY1LjUyeiIvPiYjeGE7CQk8L2c+JiN4YTsJCTxnIGlkPSJzaGFwZTc0NjMtNDEiIHRyYW5zZm9ybT0idHJhbnNsYXRlKDgyLjAxNTQsLTM4LjkyNjkpIj4mI3hhOwkJCTx0aXRsZSBpZD0idGl0bGU5MDk4NCI+U2hlZXQuNzQ2MzwvdGl0bGU+JiN4YTsJCQk8cGF0aCBpZD0icGF0aDkwOTg2IiBpbmtzY2FwZTpjb25uZWN0b3ItY3VydmF0dXJlPSIwIiBzdHlsZT0iZmlsbDojRTBFMEUwOyIgZD0iTTExLjc0LDY1LjUySDB2LTEuMDRoMTEuNzRWNjUuNTJ6Ii8+JiN4YTsJCTwvZz4mI3hhOwkJPGcgaWQ9InNoYXBlNzQ2NC00MyIgdHJhbnNmb3JtPSJ0cmFuc2xhdGUoNTkuMjE3NiwtNDIuODA0MykiPiYjeGE7CQkJPHRpdGxlIGlkPSJ0aXRsZTkwOTg5Ij5TaGVldC43NDY0PC90aXRsZT4mI3hhOwkJCTxwYXRoIGlkPSJwYXRoOTA5OTEiIGlua3NjYXBlOmNvbm5lY3Rvci1jdXJ2YXR1cmU9IjAiIHN0eWxlPSJmaWxsOiNFMEUwRTA7IiBkPSJNMTAuMjksNjUuNTJIMHYtMS4wNGgxMC4zdjEuMDRIMTAuMjl6Ii8+JiN4YTsJCTwvZz4mI3hhOwkJPGcgaWQ9InNoYXBlNzQ2NS00NSIgdHJhbnNmb3JtPSJ0cmFuc2xhdGUoNTkuMjE3NiwtNDEuMjkxOSkiPiYjeGE7CQkJPHRpdGxlIGlkPSJ0aXRsZTkwOTk0Ij5TaGVldC43NDY1PC90aXRsZT4mI3hhOwkJCTxwYXRoIGlkPSJwYXRoOTA5OTYiIGlua3NjYXBlOmNvbm5lY3Rvci1jdXJ2YXR1cmU9IjAiIHN0eWxlPSJmaWxsOiNFMEUwRTA7IiBkPSJNMTEuNzMsNjUuNTJIMHYtMS4wNGgxMS43NHYxLjA0SDExLjczeiIvPiYjeGE7CQk8L2c+JiN4YTsJCTxnIGlkPSJzaGFwZTc0NjYtNDciIHRyYW5zZm9ybT0idHJhbnNsYXRlKDU5LjIxNzYsLTM1LjUyNjUpIj4mI3hhOwkJCTx0aXRsZSBpZD0idGl0bGU5MDk5OSI+U2hlZXQuNzQ2NjwvdGl0bGU+JiN4YTsJCQk8cGF0aCBpZD0icGF0aDkxMDAxIiBpbmtzY2FwZTpjb25uZWN0b3ItY3VydmF0dXJlPSIwIiBzdHlsZT0iZmlsbDojRTBFMEUwOyIgZD0iTTEwLjI5LDY1LjUySDB2LTEuMDRoMTAuM3YxLjA0SDEwLjI5eiIvPiYjeGE7CQk8L2c+JiN4YTsJCTxnIGlkPSJzaGFwZTc0NjctNDkiIHRyYW5zZm9ybT0idHJhbnNsYXRlKDU5LjIxNzYsLTM0LjAyNDIpIj4mI3hhOwkJCTx0aXRsZSBpZD0idGl0bGU5MTAwNCI+U2hlZXQuNzQ2NzwvdGl0bGU+JiN4YTsJCQk8cGF0aCBpZD0icGF0aDkxMDA2IiBpbmtzY2FwZTpjb25uZWN0b3ItY3VydmF0dXJlPSIwIiBzdHlsZT0iZmlsbDojRTBFMEUwOyIgZD0iTTExLjczLDY1LjUySDB2LTEuMDRoMTEuNzR2MS4wNEgxMS43M3oiLz4mI3hhOwkJPC9nPiYjeGE7CQk8ZyBpZD0ic2hhcGU3NDY4LTUxIiB0cmFuc2Zvcm09InRyYW5zbGF0ZSg1OS4yMTc2LC0yOC4wMTUyKSI+JiN4YTsJCQk8dGl0bGUgaWQ9InRpdGxlOTEwMDkiPlNoZWV0Ljc0Njg8L3RpdGxlPiYjeGE7CQkJPHBhdGggaWQ9InBhdGg5MTAxMSIgaW5rc2NhcGU6Y29ubmVjdG9yLWN1cnZhdHVyZT0iMCIgc3R5bGU9ImZpbGw6I0UwRTBFMDsiIGQ9Ik0xMC4yOSw2NS41Mkgwdi0xLjA0aDEwLjN2MS4wNEgxMC4yOXoiLz4mI3hhOwkJPC9nPiYjeGE7CQk8ZyBpZD0ic2hhcGU3NDY5LTUzIiB0cmFuc2Zvcm09InRyYW5zbGF0ZSg1OS4yMTc2LC0yNi41MTI5KSI+JiN4YTsJCQk8dGl0bGUgaWQ9InRpdGxlOTEwMTQiPlNoZWV0Ljc0Njk8L3RpdGxlPiYjeGE7CQkJPHBhdGggaWQ9InBhdGg5MTAxNiIgaW5rc2NhcGU6Y29ubmVjdG9yLWN1cnZhdHVyZT0iMCIgc3R5bGU9ImZpbGw6I0UwRTBFMDsiIGQ9Ik0xMS43Myw2NS41Mkgwdi0xLjA0aDExLjc0djEuMDRIMTEuNzN6Ii8+JiN4YTsJCTwvZz4mI3hhOwkJPGcgaWQ9InNoYXBlNzQ3MC01NSIgdHJhbnNmb3JtPSJ0cmFuc2xhdGUoMzUuNDY1NiwtMTguMDA2OSkiPiYjeGE7CQkJPHRpdGxlIGlkPSJ0aXRsZTkxMDE5Ij5TaGVldC43NDcwPC90aXRsZT4mI3hhOwkJCTxwYXRoIGlkPSJwYXRoOTEwMjEiIGlua3NjYXBlOmNvbm5lY3Rvci1jdXJ2YXR1cmU9IjAiIHN0eWxlPSJmaWxsOiNFMEUwRTA7IiBkPSJNMTAuMjksNjUuNTJIMHYtMS4wNGgxMC4zdjEuMDRIMTAuMjl6Ii8+JiN4YTsJCTwvZz4mI3hhOwkJPGcgaWQ9InNoYXBlNzQ3MS01NyIgdHJhbnNmb3JtPSJ0cmFuc2xhdGUoMzUuNDY1NiwtMTYuNDk0NCkiPiYjeGE7CQkJPHRpdGxlIGlkPSJ0aXRsZTkxMDI0Ij5TaGVldC43NDcxPC90aXRsZT4mI3hhOwkJCTxwYXRoIGlkPSJwYXRoOTEwMjYiIGlua3NjYXBlOmNvbm5lY3Rvci1jdXJ2YXR1cmU9IjAiIHN0eWxlPSJmaWxsOiNFMEUwRTA7IiBkPSJNMTEuNzMsNjUuNTJIMHYtMS4wNGgxMS43NHYxLjA0SDExLjczeiIvPiYjeGE7CQk8L2c+JiN4YTsJCTxnIGlkPSJzaGFwZTc0NzItNTkiIHRyYW5zZm9ybT0idHJhbnNsYXRlKDM1LjU2NzEsLTMwLjQ5MTkpIj4mI3hhOwkJCTx0aXRsZSBpZD0idGl0bGU5MTAyOSI+U2hlZXQuNzQ3MjwvdGl0bGU+JiN4YTsJCQk8cGF0aCBpZD0icGF0aDkxMDMxIiBpbmtzY2FwZTpjb25uZWN0b3ItY3VydmF0dXJlPSIwIiBzdHlsZT0iZmlsbDojRTBFMEUwOyIgZD0iTTEwLjI5LDY1LjUySDB2LTEuMDRoMTAuM3YxLjA0SDEwLjI5eiIvPiYjeGE7CQk8L2c+JiN4YTsJCTxnIGlkPSJzaGFwZTc0NzMtNjEiIHRyYW5zZm9ybT0idHJhbnNsYXRlKDM1LjQ2NTYsLTQyLjYzMTgpIj4mI3hhOwkJCTx0aXRsZSBpZD0idGl0bGU5MTAzNCI+U2hlZXQuNzQ3MzwvdGl0bGU+JiN4YTsJCQk8cGF0aCBpZD0icGF0aDkxMDM2IiBpbmtzY2FwZTpjb25uZWN0b3ItY3VydmF0dXJlPSIwIiBzdHlsZT0iZmlsbDojRTBFMEUwOyIgZD0iTTEwLjI5LDY1LjUySDB2LTEuMDRoMTAuM3YxLjA0SDEwLjI5eiIvPiYjeGE7CQk8L2c+JiN4YTsJCTxnIGlkPSJzaGFwZTc0NzQtNjMiIHRyYW5zZm9ybT0idHJhbnNsYXRlKDM1LjU2NzEsLTI4Ljk3OTUpIj4mI3hhOwkJCTx0aXRsZSBpZD0idGl0bGU5MTAzOSI+U2hlZXQuNzQ3NDwvdGl0bGU+JiN4YTsJCQk8cGF0aCBpZD0icGF0aDkxMDQxIiBpbmtzY2FwZTpjb25uZWN0b3ItY3VydmF0dXJlPSIwIiBzdHlsZT0iZmlsbDojRTBFMEUwOyIgZD0iTTExLjczLDY1LjUySDB2LTEuMDRoMTEuNzR2MS4wNEgxMS43M3oiLz4mI3hhOwkJPC9nPiYjeGE7CQk8ZyBpZD0ic2hhcGU3NDc1LTY1IiB0cmFuc2Zvcm09InRyYW5zbGF0ZSg4Mi4wMTU0LC00Mi43NjM3KSI+JiN4YTsJCQk8dGl0bGUgaWQ9InRpdGxlOTEwNDQiPlNoZWV0Ljc0NzU8L3RpdGxlPiYjeGE7CQkJPHBhdGggaWQ9InBhdGg5MTA0NiIgaW5rc2NhcGU6Y29ubmVjdG9yLWN1cnZhdHVyZT0iMCIgc3R5bGU9ImZpbGw6I0YyODIzNjsiIGQ9Ik02LjUyLDY1LjUySDB2LTEuMDRoNi41MlY2NS41MnoiLz4mI3hhOwkJPC9nPiYjeGE7CQk8ZyBpZD0ic2hhcGU3NDc2LTY3IiB0cmFuc2Zvcm09InRyYW5zbGF0ZSg3MS45OTcsLTQyLjc2MzcpIj4mI3hhOwkJCTx0aXRsZSBpZD0idGl0bGU5MTA0OSI+U2hlZXQuNzQ3NjwvdGl0bGU+JiN4YTsJCQk8cGF0aCBpZD0icGF0aDkxMDUxIiBpbmtzY2FwZTpjb25uZWN0b3ItY3VydmF0dXJlPSIwIiBzdHlsZT0iZmlsbDojNDI0MjQyOyIgZD0iTTYuNTIsNjUuNTJIMHYtMS4wNGg2LjUyVjY1LjUyeiIvPiYjeGE7CQk8L2c+JiN4YTsJCTxnIGlkPSJzaGFwZTc0NzctNjkiIHRyYW5zZm9ybT0idHJhbnNsYXRlKDQ4LjcyMiwtNDIuNzYzNykiPiYjeGE7CQkJPHRpdGxlIGlkPSJ0aXRsZTkxMDU0Ij5TaGVldC43NDc3PC90aXRsZT4mI3hhOwkJCTxwYXRoIGlkPSJwYXRoOTEwNTYiIGlua3NjYXBlOmNvbm5lY3Rvci1jdXJ2YXR1cmU9IjAiIHN0eWxlPSJmaWxsOiM0MjQyNDI7IiBkPSJNNi41Miw2NS41Mkgwdi0xLjA0aDYuNTJWNjUuNTJ6Ii8+JiN4YTsJCTwvZz4mI3hhOwkJPGcgaWQ9InNoYXBlNzQ3OC03MSIgdHJhbnNmb3JtPSJ0cmFuc2xhdGUoNzEuOTk3LC0zNS41MjY1KSI+JiN4YTsJCQk8dGl0bGUgaWQ9InRpdGxlOTEwNTkiPlNoZWV0Ljc0Nzg8L3RpdGxlPiYjeGE7CQkJPHBhdGggaWQ9InBhdGg5MTA2MSIgaW5rc2NhcGU6Y29ubmVjdG9yLWN1cnZhdHVyZT0iMCIgc3R5bGU9ImZpbGw6IzQyNDI0MjsiIGQ9Ik02LjUyLDY1LjUySDB2LTEuMDRoNi41MlY2NS41MnoiLz4mI3hhOwkJPC9nPiYjeGE7CQk8ZyBpZD0ic2hhcGU3NDc5LTczIiB0cmFuc2Zvcm09InRyYW5zbGF0ZSg0OC43MjIsLTMwLjUxMjIpIj4mI3hhOwkJCTx0aXRsZSBpZD0idGl0bGU5MTA2NCI+U2hlZXQuNzQ3OTwvdGl0bGU+JiN4YTsJCQk8cGF0aCBpZD0icGF0aDkxMDY2IiBpbmtzY2FwZTpjb25uZWN0b3ItY3VydmF0dXJlPSIwIiBzdHlsZT0iZmlsbDojNDI0MjQyOyIgZD0iTTYuNTIsNjUuNTJIMHYtMS4wNGg2LjUyVjY1LjUyeiIvPiYjeGE7CQk8L2c+JiN4YTsJCTxnIGlkPSJzaGFwZTc0ODAtNzUiIHRyYW5zZm9ybT0idHJhbnNsYXRlKDQ4LjcyMiwtMTcuOTk2NykiPiYjeGE7CQkJPHRpdGxlIGlkPSJ0aXRsZTkxMDY5Ij5TaGVldC43NDgwPC90aXRsZT4mI3hhOwkJCTxwYXRoIGlkPSJwYXRoOTEwNzEiIGlua3NjYXBlOmNvbm5lY3Rvci1jdXJ2YXR1cmU9IjAiIHN0eWxlPSJmaWxsOiM0MjQyNDI7IiBkPSJNNi41Miw2NS41Mkgwdi0xLjA0aDYuNTJWNjUuNTJ6Ii8+JiN4YTsJCTwvZz4mI3hhOwkJPGcgaWQ9InNoYXBlNzQ4MS03NyIgdHJhbnNmb3JtPSJ0cmFuc2xhdGUoNzEuODY1LC0yOC4wNzYxKSI+JiN4YTsJCQk8dGl0bGUgaWQ9InRpdGxlOTEwNzQiPlNoZWV0Ljc0ODE8L3RpdGxlPiYjeGE7CQkJPHBhdGggaWQ9InBhdGg5MTA3NiIgaW5rc2NhcGU6Y29ubmVjdG9yLWN1cnZhdHVyZT0iMCIgc3R5bGU9ImZpbGw6IzQyNDI0MjsiIGQ9Ik02LjUyLDY1LjUySDB2LTEuMDRoNi41MlY2NS41MnoiLz4mI3hhOwkJPC9nPiYjeGE7CQk8ZyBpZD0ic2hhcGU3NDgyLTc5IiB0cmFuc2Zvcm09InRyYW5zbGF0ZSg4MS4yMTM2LC0yNS4wNDExKSI+JiN4YTsJCQk8dGl0bGUgaWQ9InRpdGxlOTEwNzkiPlNoZWV0Ljc0ODI8L3RpdGxlPiYjeGE7CQkJPHBhdGggaWQ9InBhdGg5MTA4MSIgaW5rc2NhcGU6Y29ubmVjdG9yLWN1cnZhdHVyZT0iMCIgc3R5bGU9ImZpbGw6I0ZGRkZGRjsiIGQ9Ik0xMy43Myw2NS41Mkgwdi03LjU1aDEzLjczVjY1LjUyeiIvPiYjeGE7CQk8L2c+JiN4YTsJCTxnIGlkPSJzaGFwZTc0ODMtODEiIHRyYW5zZm9ybT0idHJhbnNsYXRlKDgyLjAxNTQsLTI3Ljk1NDMpIj4mI3hhOwkJCTx0aXRsZSBpZD0idGl0bGU5MTA4NCI+U2hlZXQuNzQ4MzwvdGl0bGU+JiN4YTsJCQk8cGF0aCBpZD0icGF0aDkxMDg2IiBpbmtzY2FwZTpjb25uZWN0b3ItY3VydmF0dXJlPSIwIiBzdHlsZT0iZmlsbDojRTBFMEUwOyIgZD0iTTEwLjMsNjUuNTJIMHYtMS4wNGgxMC4zVjY1LjUyeiIvPiYjeGE7CQk8L2c+JiN4YTsJCTxnIGlkPSJzaGFwZTc0ODQtODMiIHRyYW5zZm9ybT0idHJhbnNsYXRlKDgyLjAxNTQsLTI2LjQ0MTkpIj4mI3hhOwkJCTx0aXRsZSBpZD0idGl0bGU5MTA4OSI+U2hlZXQuNzQ4NDwvdGl0bGU+JiN4YTsJCQk8cGF0aCBpZD0icGF0aDkxMDkxIiBpbmtzY2FwZTpjb25uZWN0b3ItY3VydmF0dXJlPSIwIiBzdHlsZT0iZmlsbDojRTBFMEUwOyIgZD0iTTExLjc0LDY1LjUySDB2LTEuMDRoMTEuNzRWNjUuNTJ6Ii8+JiN4YTsJCTwvZz4mI3hhOwkJPGcgaWQ9InNoYXBlNzQ4NS04NSIgdHJhbnNmb3JtPSJ0cmFuc2xhdGUoODIuMDE1NCwtMjkuOTc0MikiPiYjeGE7CQkJPHRpdGxlIGlkPSJ0aXRsZTkxMDk0Ij5TaGVldC43NDg1PC90aXRsZT4mI3hhOwkJCTxwYXRoIGlkPSJwYXRoOTEwOTYiIGlua3NjYXBlOmNvbm5lY3Rvci1jdXJ2YXR1cmU9IjAiIHN0eWxlPSJmaWxsOiNGMjgyMzY7IiBkPSJNNi41Miw2NS41Mkgwdi0xLjA0aDYuNTJWNjUuNTJ6Ii8+JiN4YTsJCTwvZz4mI3hhOwkJPGcgaWQ9InNoYXBlNzQ4Ni04NyIgdHJhbnNmb3JtPSJ0cmFuc2xhdGUoODIuMDM1NywtMzUuNzgwMykiPiYjeGE7CQkJPHRpdGxlIGlkPSJ0aXRsZTkxMDk5Ij5TaGVldC43NDg2PC90aXRsZT4mI3hhOwkJCTxwYXRoIGlkPSJwYXRoOTExMDEiIGlua3NjYXBlOmNvbm5lY3Rvci1jdXJ2YXR1cmU9IjAiIHN0eWxlPSJmaWxsOiMyMTk1RjM7IiBkPSJNMTEuODMsNjQuNEgwdjEuMTJoMTEuODNWNjQuNHoiLz4mI3hhOwkJPC9nPiYjeGE7CQk8ZyBpZD0ic2hhcGU3NDg3LTg5IiB0cmFuc2Zvcm09InRyYW5zbGF0ZSgzNS43NDk4LC0zNy4yNDE5KSI+JiN4YTsJCQk8dGl0bGUgaWQ9InRpdGxlOTExMDQiPlNoZWV0Ljc0ODc8L3RpdGxlPiYjeGE7CQkJPHBhdGggaWQ9InBhdGg5MTEwNiIgaW5rc2NhcGU6Y29ubmVjdG9yLWN1cnZhdHVyZT0iMCIgc3R5bGU9ImZpbGw6IzIxOTVGMzsiIGQ9Ik0xMS44Myw2NC40SDB2MS4xMmgxMS44M1Y2NC40eiIvPiYjeGE7CQk8L2c+JiN4YTsJCTxnIGlkPSJzaGFwZTc0ODgtOTEiIHRyYW5zZm9ybT0idHJhbnNsYXRlKDM1Ljc0OTgsLTM1LjUxNjMpIj4mI3hhOwkJCTx0aXRsZSBpZD0idGl0bGU5MTEwOSI+U2hlZXQuNzQ4ODwvdGl0bGU+JiN4YTsJCQk8cGF0aCBpZD0icGF0aDkxMTExIiBpbmtzY2FwZTpjb25uZWN0b3ItY3VydmF0dXJlPSIwIiBzdHlsZT0iZmlsbDojMjE5NUYzOyIgZD0iTTExLjgzLDY0LjRIMHYxLjEyaDExLjgzVjY0LjR6Ii8+JiN4YTsJCTwvZz4mI3hhOwkJPGcgaWQ9InNoYXBlNzQ4OS05MyIgdHJhbnNmb3JtPSJ0cmFuc2xhdGUoMzUuNTQ2OCwtMjQuOTE5MykiPiYjeGE7CQkJPHRpdGxlIGlkPSJ0aXRsZTkxMTE0Ij5TaGVldC43NDg5PC90aXRsZT4mI3hhOwkJCTxwYXRoIGlkPSJwYXRoOTExMTYiIGlua3NjYXBlOmNvbm5lY3Rvci1jdXJ2YXR1cmU9IjAiIHN0eWxlPSJmaWxsOiMyMTk1RjM7IiBkPSJNMTEuODMsNjQuNEgwdjEuMTJoMTEuODNWNjQuNHoiLz4mI3hhOwkJPC9nPiYjeGE7CQk8ZyBpZD0ic2hhcGU3NDkwLTk1IiB0cmFuc2Zvcm09InRyYW5zbGF0ZSgzNS41NDY4LC0yMy4xOTM3KSI+JiN4YTsJCQk8dGl0bGUgaWQ9InRpdGxlOTExMTkiPlNoZWV0Ljc0OTA8L3RpdGxlPiYjeGE7CQkJPHBhdGggaWQ9InBhdGg5MTEyMSIgaW5rc2NhcGU6Y29ubmVjdG9yLWN1cnZhdHVyZT0iMCIgc3R5bGU9ImZpbGw6IzIxOTVGMzsiIGQ9Ik0xMS44Myw2NC40SDB2MS4xMmgxMS44M1Y2NC40eiIvPiYjeGE7CQk8L2c+JiN4YTsJCTxnIGlkPSJzaGFwZTc0OTEtOTciIHRyYW5zZm9ybT0idHJhbnNsYXRlKDE3Ljc2MzIsLTU3LjM2MDEpIj4mI3hhOwkJCTx0aXRsZSBpZD0idGl0bGU5MTEyNCI+U2hlZXQuNzQ5MTwvdGl0bGU+JiN4YTsJCQk8cGF0aCBpZD0icGF0aDkxMTI2IiBpbmtzY2FwZTpjb25uZWN0b3ItY3VydmF0dXJlPSIwIiBzdHlsZT0iZmlsbDojMjE5NUYzOyIgZD0iTTMuNzIsNjUuNTJIMHYtMi45MWgzLjcyVjY1LjUyeiIvPiYjeGE7CQk8L2c+JiN4YTsJCTxnIGlkPSJzaGFwZTc0OTItOTkiIHRyYW5zZm9ybT0idHJhbnNsYXRlKDIyLjg4OTIsLTU3LjMwOTMpIj4mI3hhOwkJCTx0aXRsZSBpZD0idGl0bGU5MTEyOSI+U2hlZXQuNzQ5MjwvdGl0bGU+JiN4YTsJCQk8cGF0aCBpZD0icGF0aDkxMTMxIiBpbmtzY2FwZTpjb25uZWN0b3ItY3VydmF0dXJlPSIwIiBzdHlsZT0iZmlsbDojRTBFMEUwOyIgZD0iTTkuMzEsNjUuNTJIMHYtMi45NWg5LjMxVjY1LjUyeiIvPiYjeGE7CQk8L2c+JiN4YTsJCTxnIGlkPSJzaGFwZTc0OTMtMTAxIiB0cmFuc2Zvcm09InRyYW5zbGF0ZSg4Ni40MzA5LC01Ny4zMDkzKSI+JiN4YTsJCQk8dGl0bGUgaWQ9InRpdGxlOTExMzQiPlNoZWV0Ljc0OTM8L3RpdGxlPiYjeGE7CQkJPHBhdGggaWQ9InBhdGg5MTEzNiIgaW5rc2NhcGU6Y29ubmVjdG9yLWN1cnZhdHVyZT0iMCIgc3R5bGU9ImZpbGw6I0UwRTBFMDsiIGQ9Ik04LjU0LDY1LjUySDB2LTIuOTVoOC41NFY2NS41MnoiLz4mI3hhOwkJPC9nPiYjeGE7CQk8ZyBpZD0ic2hhcGU3NDk0LTEwMyIgdHJhbnNmb3JtPSJ0cmFuc2xhdGUoMzQuMTY2MywtNTcuMzkwNSkiPiYjeGE7CQkJPHRpdGxlIGlkPSJ0aXRsZTkxMTM5Ij5TaGVldC43NDk0PC90aXRsZT4mI3hhOwkJCTxwYXRoIGlkPSJwYXRoOTExNDEiIGlua3NjYXBlOmNvbm5lY3Rvci1jdXJ2YXR1cmU9IjAiIHN0eWxlPSJmaWxsOiNGMjgyMzY7IiBkPSJNMy4zOCw2NS41Mkgwdi0yLjc3aDMuMzhWNjUuNTJ6Ii8+JiN4YTsJCTwvZz4mI3hhOwkJPGcgaWQ9InNoYXBlNzQ5NS0xMDUiIHRyYW5zZm9ybT0idHJhbnNsYXRlKDgxLjI2NDMsLTU3LjQ5MikiPiYjeGE7CQkJPHRpdGxlIGlkPSJ0aXRsZTkxMTQ0Ij5TaGVldC43NDk1PC90aXRsZT4mI3hhOwkJCTxwYXRoIGlkPSJwYXRoOTExNDYiIGlua3NjYXBlOmNvbm5lY3Rvci1jdXJ2YXR1cmU9IjAiIHN0eWxlPSJmaWxsOiNGMjgyMzY7IiBkPSJNMy4zOCw2NS41Mkgwdi0yLjc3aDMuMzhWNjUuNTJ6Ii8+JiN4YTsJCTwvZz4mI3hhOwkJPGcgaWQ9InNoYXBlNzQ5Ni0xMDciIHRyYW5zZm9ybT0idHJhbnNsYXRlKDc2LjA1NzEsLTU3LjQ5MikiPiYjeGE7CQkJPHRpdGxlIGlkPSJ0aXRsZTkxMTQ5Ij5TaGVldC43NDk2PC90aXRsZT4mI3hhOwkJCTxwYXRoIGlkPSJwYXRoOTExNTEiIGlua3NjYXBlOmNvbm5lY3Rvci1jdXJ2YXR1cmU9IjAiIHN0eWxlPSJmaWxsOiNGMjgyMzY7IiBkPSJNMy4zOCw2NS41Mkgwdi0yLjc3aDMuMzhWNjUuNTJ6Ii8+JiN4YTsJCTwvZz4mI3hhOwkJPGcgaWQ9InNoYXBlNzQ5Ny0xMDkiIHRyYW5zZm9ybT0idHJhbnNsYXRlKDcwLjk4MTksLTU3LjQ5MikiPiYjeGE7CQkJPHRpdGxlIGlkPSJ0aXRsZTkxMTU0Ij5TaGVldC43NDk3PC90aXRsZT4mI3hhOwkJCTxwYXRoIGlkPSJwYXRoOTExNTYiIGlua3NjYXBlOmNvbm5lY3Rvci1jdXJ2YXR1cmU9IjAiIHN0eWxlPSJmaWxsOiNGMjgyMzY7IiBkPSJNMy4zOCw2NS41Mkgwdi0yLjc3aDMuMzhWNjUuNTJ6Ii8+JiN4YTsJCTwvZz4mI3hhOwkJPGcgaWQ9InNoYXBlNzQ5OC0xMTEiIHRyYW5zZm9ybT0idHJhbnNsYXRlKDExLjUxMDYsLTQuNzA5OCkiPiYjeGE7CQkJPHRpdGxlIGlkPSJ0aXRsZTkxMTU5Ij5TaGVldC43NDk4PC90aXRsZT4mI3hhOwkJCTxwYXRoIGlkPSJwYXRoOTExNjEiIGlua3NjYXBlOmNvbm5lY3Rvci1jdXJ2YXR1cmU9IjAiIHN0eWxlPSJmaWxsOiM0MjQyNDI7IiBkPSJNODUuODgsNS4zNUgzLjAyQzEuMjksNS4zNSwwLDYuNzYsMCw4LjQ5djU3LjAzICAgICBoODguOVY4LjQ5Qzg4LjkxLDYuNzYsODcuNjMsNS4zNSw4NS44OCw1LjM1eiBNODQuOCw2MS43M0g0LjYxVjguODVIODQuOFY2MS43M3oiLz4mI3hhOwkJPC9nPiYjeGE7CTwvZz4mI3hhOzwvZz4mI3hhOzwvc3ZnPg==;" vertex="1" parent="1">
          <mxGeometry x="824" y="400.0000000000018" width="114" height="65" as="geometry" />
        </mxCell>
        <mxCell id="ludOifVa8UkIGbpV-UGc-54" value="data visualization of individual dataset" style="edgeStyle=orthogonalEdgeStyle;rounded=0;orthogonalLoop=1;jettySize=auto;html=1;strokeColor=#000000;" edge="1" parent="1" source="ludOifVa8UkIGbpV-UGc-47" target="ludOifVa8UkIGbpV-UGc-48">
          <mxGeometry relative="1" as="geometry" />
        </mxCell>
        <mxCell id="ludOifVa8UkIGbpV-UGc-47" value="Machine&lt;br&gt;Learning" style="aspect=fixed;html=1;perimeter=none;align=center;shadow=0;dashed=0;image;fontSize=12;image=img/lib/mscae/Machine_Learning.svg;labelBackgroundColor=#ffffff;fillColor=#4D9900;" vertex="1" parent="1">
          <mxGeometry x="394" y="610.0000000000001" width="49" height="50" as="geometry" />
        </mxCell>
        <mxCell id="ludOifVa8UkIGbpV-UGc-48" value="data visualization" style="shape=image;verticalLabelPosition=bottom;labelBackgroundColor=#ffffff;verticalAlign=top;aspect=fixed;imageAspect=0;image=data:image/svg+xml,PHN2ZyB4bWxuczpjYz0iaHR0cDovL2NyZWF0aXZlY29tbW9ucy5vcmcvbnMjIiB4bWxuczpkYz0iaHR0cDovL3B1cmwub3JnL2RjL2VsZW1lbnRzLzEuMS8iIHhtbG5zOmlua3NjYXBlPSJodHRwOi8vd3d3Lmlua3NjYXBlLm9yZy9uYW1lc3BhY2VzL2lua3NjYXBlIiB4bWxuczpyZGY9Imh0dHA6Ly93d3cudzMub3JnLzE5OTkvMDIvMjItcmRmLXN5bnRheC1ucyMiIHhtbG5zOnNvZGlwb2RpPSJodHRwOi8vc29kaXBvZGkuc291cmNlZm9yZ2UubmV0L0RURC9zb2RpcG9kaS0wLmR0ZCIgeG1sbnM6c3ZnPSJodHRwOi8vd3d3LnczLm9yZy8yMDAwL3N2ZyIgeG1sbnM9Imh0dHA6Ly93d3cudzMub3JnLzIwMDAvc3ZnIiB4bWxuczp4bGluaz0iaHR0cDovL3d3dy53My5vcmcvMTk5OS94bGluayIgdmVyc2lvbj0iMS4xIiBpZD0ic3ZnOTExNjciIGlua3NjYXBlOnZlcnNpb249IjAuOTIuMyAoMjQwNTU0NiwgMjAxOC0wMy0xMSkiIHNvZGlwb2RpOmRvY25hbWU9Im1pY3Jvc29mdF9wbGFubmVyLnN2ZyIgeD0iMHB4IiB5PSIwcHgiIHZpZXdCb3g9IjAgMCAxMTQuMzggNjQuODgiIHN0eWxlPSJlbmFibGUtYmFja2dyb3VuZDpuZXcgMCAwIDExNC4zOCA2NC44ODsiIHhtbDpzcGFjZT0icHJlc2VydmUiPiYjeGE7PHNvZGlwb2RpOm5hbWVkdmlldyBib3JkZXJjb2xvcj0iIzY2NjY2NiIgYm9yZGVyb3BhY2l0eT0iMSIgZml0LW1hcmdpbi1ib3R0b209IjAiIGZpdC1tYXJnaW4tbGVmdD0iMCIgZml0LW1hcmdpbi1yaWdodD0iMCIgZml0LW1hcmdpbi10b3A9IjAiIGdyaWR0b2xlcmFuY2U9IjEwIiBndWlkZXRvbGVyYW5jZT0iMTAiIGlkPSJuYW1lZHZpZXc5MTE2OSIgaW5rc2NhcGU6Y3VycmVudC1sYXllcj0ic3ZnOTExNjciIGlua3NjYXBlOmN4PSI3Ni4yNTAxOTgiIGlua3NjYXBlOmN5PSI0My4yNTU1OTIiIGlua3NjYXBlOnBhZ2VvcGFjaXR5PSIwIiBpbmtzY2FwZTpwYWdlc2hhZG93PSIyIiBpbmtzY2FwZTp3aW5kb3ctaGVpZ2h0PSIxMDE3IiBpbmtzY2FwZTp3aW5kb3ctbWF4aW1pemVkPSIxIiBpbmtzY2FwZTp3aW5kb3ctd2lkdGg9IjE5MjAiIGlua3NjYXBlOndpbmRvdy14PSItOCIgaW5rc2NhcGU6d2luZG93LXk9Ii04IiBpbmtzY2FwZTp6b29tPSI5LjkyNDYwMyIgb2JqZWN0dG9sZXJhbmNlPSIxMCIgcGFnZWNvbG9yPSIjZmZmZmZmIiBzaG93Z3JpZD0iZmFsc2UiPiYjeGE7CTwvc29kaXBvZGk6bmFtZWR2aWV3PiYjeGE7PGcgaWQ9Imc5MTE2NSIgdHJhbnNmb3JtPSJ0cmFuc2xhdGUoLTAuMzE4NzUsLTAuMzIxNTAzMDUpIj4mI3hhOwk8dGl0bGUgaWQ9InRpdGxlOTA4ODIiPlBhZ2UtMTwvdGl0bGU+JiN4YTsJPGcgaWQ9Imdyb3VwNzQ0Mi0xIiB0cmFuc2Zvcm09InRyYW5zbGF0ZSgwLjMxODc1LC0wLjMxODc1KSI+JiN4YTsJCTx0aXRsZSBpZD0idGl0bGU5MDg4NCI+TWljcm9zb2Z0IFBsYW5uZXI8L3RpdGxlPiYjeGE7CQk8ZyBpZD0ic2hhcGU3NDQzLTIiIHRyYW5zZm9ybT0idHJhbnNsYXRlKDE1Ljk1NjUsLTYuMzQ0MDIpIj4mI3hhOwkJCTx0aXRsZSBpZD0idGl0bGU5MDg4NiI+U2hlZXQuNzQ0MzwvdGl0bGU+JiN4YTsJCQk8cGF0aCBpZD0icGF0aDkwODg4IiBpbmtzY2FwZTpjb25uZWN0b3ItY3VydmF0dXJlPSIwIiBzdHlsZT0iZmlsbDojRTBFMEUwOyIgZD0iTTgyLjIyLDkuNDl2NTYuMDNIMFY5LjQ5SDgyLjIyeiIvPiYjeGE7CQk8L2c+JiN4YTsJCTxnIGlkPSJzaGFwZTc0NDQtNCIgdHJhbnNmb3JtPSJ0cmFuc2xhdGUoMzguNjQyNywtMjcuMTcyNykiPiYjeGE7CQkJPHRpdGxlIGlkPSJ0aXRsZTkwODkxIj5TaGVldC43NDQ0PC90aXRsZT4mI3hhOwkJPC9nPiYjeGE7CQk8ZyBpZD0ic2hhcGU3NDQ1LTUiIHRyYW5zZm9ybT0idHJhbnNsYXRlKDE0LjUwNSwtNi42Njg4MykiPiYjeGE7CQkJPHRpdGxlIGlkPSJ0aXRsZTkwODk0Ij5TaGVldC43NDQ1PC90aXRsZT4mI3hhOwkJCTxwYXRoIGlkPSJwYXRoOTA4OTYiIGlua3NjYXBlOmNvbm5lY3Rvci1jdXJ2YXR1cmU9IjAiIHN0eWxlPSJmaWxsOiM3NTc1NzU7IiBkPSJNMTcuODQsNjUuNTJIMFYxNS45NiAgICAgYzAtMS4xMiwwLjkxLTIuMDQsMi4wNC0yLjA0aDE1LjhWNjUuNTJ6Ii8+JiN4YTsJCTwvZz4mI3hhOwkJPGcgaWQ9InNoYXBlNzQ0Ni03IiB0cmFuc2Zvcm09InRyYW5zbGF0ZSgzNC4yMDY5LC00Ny4wMDY2KSI+JiN4YTsJCQk8dGl0bGUgaWQ9InRpdGxlOTA4OTkiPlNoZWV0Ljc0NDY8L3RpdGxlPiYjeGE7CQkJPHBhdGggaWQ9InBhdGg5MDkwMSIgaW5rc2NhcGU6Y29ubmVjdG9yLWN1cnZhdHVyZT0iMCIgc3R5bGU9ImZpbGw6I0YyODIzNjsiIGQ9Ik0xNC4wOSw2NS41MkgwVjU4aDE0LjF2Ny41MkgxNC4wOXoiLz4mI3hhOwkJPC9nPiYjeGE7CQk8ZyBpZD0ic2hhcGU3NDQ3LTkiIHRyYW5zZm9ybT0idHJhbnNsYXRlKDQ5Ljc1NzQsLTQ3LjAwNjYpIj4mI3hhOwkJCTx0aXRsZSBpZD0idGl0bGU5MDkwNCI+U2hlZXQuNzQ0NzwvdGl0bGU+JiN4YTsJCQk8cGF0aCBpZD0icGF0aDkwOTA2IiBpbmtzY2FwZTpjb25uZWN0b3ItY3VydmF0dXJlPSIwIiBzdHlsZT0iZmlsbDojNTRBRkUyOyIgZD0iTTE0LjEsNjUuNTJIMFY1OGgxNC4xVjY1LjUyeiIvPiYjeGE7CQk8L2c+JiN4YTsJCTxnIGlkPSJzaGFwZTc0NDgtMTEiIHRyYW5zZm9ybT0idHJhbnNsYXRlKDY1LjMxOCwtNDcuMDA2NikiPiYjeGE7CQkJPHRpdGxlIGlkPSJ0aXRsZTkwOTA5Ij5TaGVldC43NDQ4PC90aXRsZT4mI3hhOwkJCTxwYXRoIGlkPSJwYXRoOTA5MTEiIGlua3NjYXBlOmNvbm5lY3Rvci1jdXJ2YXR1cmU9IjAiIHN0eWxlPSJmaWxsOiMyMTk1RjM7IiBkPSJNMTQuMSw2NS41MkgwVjU4aDE0LjFWNjUuNTJ6Ii8+JiN4YTsJCTwvZz4mI3hhOwkJPGcgaWQ9InNoYXBlNzQ0OS0xMyIgdHJhbnNmb3JtPSJ0cmFuc2xhdGUoODAuOTgwMSwtNDcuMDA2NikiPiYjeGE7CQkJPHRpdGxlIGlkPSJ0aXRsZTkwOTE0Ij5TaGVldC43NDQ5PC90aXRsZT4mI3hhOwkJCTxwYXRoIGlkPSJwYXRoOTA5MTYiIGlua3NjYXBlOmNvbm5lY3Rvci1jdXJ2YXR1cmU9IjAiIHN0eWxlPSJmaWxsOiM0MjQyNDI7IiBkPSJNMTQuMSw2NS41MkgwVjU4aDE0LjFWNjUuNTJ6Ii8+JiN4YTsJCTwvZz4mI3hhOwkJPGcgaWQ9InNoYXBlNzQ1MC0xNSIgdHJhbnNmb3JtPSJ0cmFuc2xhdGUoMTUuOTY2NiwtNTMuMTk4NCkiPiYjeGE7CQkJPHRpdGxlIGlkPSJ0aXRsZTkwOTE5Ij5TaGVldC43NDUwPC90aXRsZT4mI3hhOwkJCTxwYXRoIGlkPSJwYXRoOTA5MjEiIGlua3NjYXBlOmNvbm5lY3Rvci1jdXJ2YXR1cmU9IjAiIHN0eWxlPSJmaWxsOiM0MjQyNDI7IiBkPSJNMTYuMzcsNjUuNTJIMHYtMi45NmgxNi4zN1Y2NS41MnoiLz4mI3hhOwkJPC9nPiYjeGE7CQk8ZyBpZD0ic2hhcGU3NDUxLTE3IiB0cmFuc2Zvcm09InRyYW5zbGF0ZSg2MC45NzM2LC00LjIyMjU4KSI+JiN4YTsJCQk8dGl0bGUgaWQ9InRpdGxlOTA5MjQiPlNoZWV0Ljc0NTE8L3RpdGxlPiYjeGE7CQkJPHBhdGggaWQ9InBhdGg5MDkyNiIgaW5rc2NhcGU6Y29ubmVjdG9yLWN1cnZhdHVyZT0iMCIgc3R5bGU9ImZpbGw6I0UwRTBFMDsiIGQ9Ik0xMS4wMyw2NS41Mkgwdi05LjQ5aDExLjAzVjY1LjUyeiIvPiYjeGE7CQk8L2c+JiN4YTsJCTxnIGlkPSJzaGFwZTc0NTItMTkiIHRyYW5zZm9ybT0idHJhbnNsYXRlKDM0LjM3OTUsLTM0LjI0NzUpIj4mI3hhOwkJCTx0aXRsZSBpZD0idGl0bGU5MDkyOSI+U2hlZXQuNzQ1MjwvdGl0bGU+JiN4YTsJCQk8cGF0aCBpZD0icGF0aDkwOTMxIiBpbmtzY2FwZTpjb25uZWN0b3ItY3VydmF0dXJlPSIwIiBzdHlsZT0iZmlsbDojRkZGRkZGOyIgZD0iTTIxLjY1LDY1LjUySDBWNTQuNzNoMjEuNjVWNjUuNTJ6Ii8+JiN4YTsJCTwvZz4mI3hhOwkJPGcgaWQ9InNoYXBlNzQ1My0yMSIgdHJhbnNmb3JtPSJ0cmFuc2xhdGUoNTguMTUxOCwtMzguODQ1NykiPiYjeGE7CQkJPHRpdGxlIGlkPSJ0aXRsZTkwOTM0Ij5TaGVldC43NDUzPC90aXRsZT4mI3hhOwkJCTxwYXRoIGlkPSJwYXRoOTA5MzYiIGlua3NjYXBlOmNvbm5lY3Rvci1jdXJ2YXR1cmU9IjAiIHN0eWxlPSJmaWxsOiNGRkZGRkY7IiBkPSJNMjEuMTQsNjUuNTJIMHYtNi4xOWgyMS4xNFY2NS41MnoiLz4mI3hhOwkJPC9nPiYjeGE7CQk8ZyBpZD0ic2hhcGU3NDU0LTIzIiB0cmFuc2Zvcm09InRyYW5zbGF0ZSg1OC4xNTE4LC0zMS41ODgxKSI+JiN4YTsJCQk8dGl0bGUgaWQ9InRpdGxlOTA5MzkiPlNoZWV0Ljc0NTQ8L3RpdGxlPiYjeGE7CQkJPHBhdGggaWQ9InBhdGg5MDk0MSIgaW5rc2NhcGU6Y29ubmVjdG9yLWN1cnZhdHVyZT0iMCIgc3R5bGU9ImZpbGw6I0ZGRkZGRjsiIGQ9Ik0yMS4xNCw2NS41Mkgwdi02LjE5aDIxLjE0VjY1LjUyeiIvPiYjeGE7CQk8L2c+JiN4YTsJCTxnIGlkPSJzaGFwZTc0NTUtMjUiIHRyYW5zZm9ybT0idHJhbnNsYXRlKDM0LjM3OTUsLTIxLjk0NTIpIj4mI3hhOwkJCTx0aXRsZSBpZD0idGl0bGU5MDk0NCI+U2hlZXQuNzQ1NTwvdGl0bGU+JiN4YTsJCQk8cGF0aCBpZD0icGF0aDkwOTQ2IiBpbmtzY2FwZTpjb25uZWN0b3ItY3VydmF0dXJlPSIwIiBzdHlsZT0iZmlsbDojRkZGRkZGOyIgZD0iTTIxLjY1LDY1LjUySDB2LTEwLjhoMjEuNjVWNjUuNTJ6Ii8+JiN4YTsJCTwvZz4mI3hhOwkJPGcgaWQ9InNoYXBlNzQ1Ni0yNyIgdHJhbnNmb3JtPSJ0cmFuc2xhdGUoNTguMTUxOCwtMjQuODg4OCkiPiYjeGE7CQkJPHRpdGxlIGlkPSJ0aXRsZTkwOTQ5Ij5TaGVldC43NDU2PC90aXRsZT4mI3hhOwkJCTxwYXRoIGlkPSJwYXRoOTA5NTEiIGlua3NjYXBlOmNvbm5lY3Rvci1jdXJ2YXR1cmU9IjAiIHN0eWxlPSJmaWxsOiNGRkZGRkY7IiBkPSJNMjEuMTQsNjUuNTJIMFY2MC4xaDIxLjE0VjY1LjUyeiIvPiYjeGE7CQk8L2c+JiN4YTsJCTxnIGlkPSJzaGFwZTc0NTctMjkiIHRyYW5zZm9ybT0idHJhbnNsYXRlKDM0LjQ1MDUsLTE0Ljc4OTIpIj4mI3hhOwkJCTx0aXRsZSBpZD0idGl0bGU5MDk1NCI+U2hlZXQuNzQ1NzwvdGl0bGU+JiN4YTsJCQk8cGF0aCBpZD0icGF0aDkwOTU2IiBpbmtzY2FwZTpjb25uZWN0b3ItY3VydmF0dXJlPSIwIiBzdHlsZT0iZmlsbDojRkZGRkZGOyIgZD0iTTIxLjQ5LDY1LjUySDBWNjAuMWgyMS40OVY2NS41MnoiLz4mI3hhOwkJPC9nPiYjeGE7CQk8ZyBpZD0ic2hhcGU3NDU4LTMxIiB0cmFuc2Zvcm09InRyYW5zbGF0ZSgxNS40MDgzLC01Ni4xMjE3KSI+JiN4YTsJCQk8dGl0bGUgaWQ9InRpdGxlOTA5NTkiPlNoZWV0Ljc0NTg8L3RpdGxlPiYjeGE7CQkJPHBhdGggaWQ9InBhdGg5MDk2MSIgaW5rc2NhcGU6Y29ubmVjdG9yLWN1cnZhdHVyZT0iMCIgc3R5bGU9ImZpbGw6I0ZGRkZGRjsiIGQ9Ik04My45Myw2NS41Mkgwdi03LjAxaDgzLjkzVjY1LjUyeiIvPiYjeGE7CQk8L2c+JiN4YTsJCTxnIGlkPSJzaGFwZTc0NTktMzMiPiYjeGE7CQkJPHRpdGxlIGlkPSJ0aXRsZTkwOTY0Ij5TaGVldC43NDU5PC90aXRsZT4mI3hhOwkJCTxwYXRoIGlkPSJwYXRoOTA5NjYiIGlua3NjYXBlOmNvbm5lY3Rvci1jdXJ2YXR1cmU9IjAiIHN0eWxlPSJmaWxsOiM3NTc1NzU7IiBkPSJNMTE0LjM4LDYwLjgydjEuNTVjMCwxLjc0LTEuMzYsMy4xNS0zLjAyLDMuMTUgICAgIEgzLjAxQzEuMzUsNjUuNTIsMCw2NC4xMSwwLDYyLjM3di0xLjU1SDExNC4zOHoiLz4mI3hhOwkJPC9nPiYjeGE7CQk8ZyBpZD0ic2hhcGU3NDYwLTM1IiB0cmFuc2Zvcm09InRyYW5zbGF0ZSg0NC40OTk1LC0xLjcwNTI3KSI+JiN4YTsJCQk8dGl0bGUgaWQ9InRpdGxlOTA5NjkiPlNoZWV0Ljc0NjA8L3RpdGxlPiYjeGE7CQkJPHBhdGggaWQ9InBhdGg5MDk3MSIgaW5rc2NhcGU6Y29ubmVjdG9yLWN1cnZhdHVyZT0iMCIgc3R5bGU9ImZpbGw6IzQyNDI0MjsiIGQ9Ik0yNS42MSw2NC44OGMwLDAuMzUtMC4yNSwwLjY0LTAuNTgsMC42NEgwLjU3ICAgICBDMC4yNSw2NS41MiwwLDY1LjIzLDAsNjQuODhjMC0wLjM2LDAuMjUtMC42NCwwLjU3LTAuNjRoMjQuNDZDMjUuMzYsNjQuMjMsMjUuNjEsNjQuNTIsMjUuNjEsNjQuODh6Ii8+JiN4YTsJCTwvZz4mI3hhOwkJPGcgaWQ9InNoYXBlNzQ2MS0zNyIgdHJhbnNmb3JtPSJ0cmFuc2xhdGUoODEuMjEzNiwtMzQuMjc4KSI+JiN4YTsJCQk8dGl0bGUgaWQ9InRpdGxlOTA5NzQiPlNoZWV0Ljc0NjE8L3RpdGxlPiYjeGE7CQkJPHBhdGggaWQ9InBhdGg5MDk3NiIgaW5rc2NhcGU6Y29ubmVjdG9yLWN1cnZhdHVyZT0iMCIgc3R5bGU9ImZpbGw6I0ZGRkZGRjsiIGQ9Ik0xMy43Myw2NS41Mkgwdi0xMC44aDEzLjczVjY1LjUyeiIvPiYjeGE7CQk8L2c+JiN4YTsJCTxnIGlkPSJzaGFwZTc0NjItMzkiIHRyYW5zZm9ybT0idHJhbnNsYXRlKDgyLjAxNTQsLTQwLjQzOTMpIj4mI3hhOwkJCTx0aXRsZSBpZD0idGl0bGU5MDk3OSI+U2hlZXQuNzQ2MjwvdGl0bGU+JiN4YTsJCQk8cGF0aCBpZD0icGF0aDkwOTgxIiBpbmtzY2FwZTpjb25uZWN0b3ItY3VydmF0dXJlPSIwIiBzdHlsZT0iZmlsbDojRTBFMEUwOyIgZD0iTTEwLjMsNjUuNTJIMHYtMS4wNGgxMC4zVjY1LjUyeiIvPiYjeGE7CQk8L2c+JiN4YTsJCTxnIGlkPSJzaGFwZTc0NjMtNDEiIHRyYW5zZm9ybT0idHJhbnNsYXRlKDgyLjAxNTQsLTM4LjkyNjkpIj4mI3hhOwkJCTx0aXRsZSBpZD0idGl0bGU5MDk4NCI+U2hlZXQuNzQ2MzwvdGl0bGU+JiN4YTsJCQk8cGF0aCBpZD0icGF0aDkwOTg2IiBpbmtzY2FwZTpjb25uZWN0b3ItY3VydmF0dXJlPSIwIiBzdHlsZT0iZmlsbDojRTBFMEUwOyIgZD0iTTExLjc0LDY1LjUySDB2LTEuMDRoMTEuNzRWNjUuNTJ6Ii8+JiN4YTsJCTwvZz4mI3hhOwkJPGcgaWQ9InNoYXBlNzQ2NC00MyIgdHJhbnNmb3JtPSJ0cmFuc2xhdGUoNTkuMjE3NiwtNDIuODA0MykiPiYjeGE7CQkJPHRpdGxlIGlkPSJ0aXRsZTkwOTg5Ij5TaGVldC43NDY0PC90aXRsZT4mI3hhOwkJCTxwYXRoIGlkPSJwYXRoOTA5OTEiIGlua3NjYXBlOmNvbm5lY3Rvci1jdXJ2YXR1cmU9IjAiIHN0eWxlPSJmaWxsOiNFMEUwRTA7IiBkPSJNMTAuMjksNjUuNTJIMHYtMS4wNGgxMC4zdjEuMDRIMTAuMjl6Ii8+JiN4YTsJCTwvZz4mI3hhOwkJPGcgaWQ9InNoYXBlNzQ2NS00NSIgdHJhbnNmb3JtPSJ0cmFuc2xhdGUoNTkuMjE3NiwtNDEuMjkxOSkiPiYjeGE7CQkJPHRpdGxlIGlkPSJ0aXRsZTkwOTk0Ij5TaGVldC43NDY1PC90aXRsZT4mI3hhOwkJCTxwYXRoIGlkPSJwYXRoOTA5OTYiIGlua3NjYXBlOmNvbm5lY3Rvci1jdXJ2YXR1cmU9IjAiIHN0eWxlPSJmaWxsOiNFMEUwRTA7IiBkPSJNMTEuNzMsNjUuNTJIMHYtMS4wNGgxMS43NHYxLjA0SDExLjczeiIvPiYjeGE7CQk8L2c+JiN4YTsJCTxnIGlkPSJzaGFwZTc0NjYtNDciIHRyYW5zZm9ybT0idHJhbnNsYXRlKDU5LjIxNzYsLTM1LjUyNjUpIj4mI3hhOwkJCTx0aXRsZSBpZD0idGl0bGU5MDk5OSI+U2hlZXQuNzQ2NjwvdGl0bGU+JiN4YTsJCQk8cGF0aCBpZD0icGF0aDkxMDAxIiBpbmtzY2FwZTpjb25uZWN0b3ItY3VydmF0dXJlPSIwIiBzdHlsZT0iZmlsbDojRTBFMEUwOyIgZD0iTTEwLjI5LDY1LjUySDB2LTEuMDRoMTAuM3YxLjA0SDEwLjI5eiIvPiYjeGE7CQk8L2c+JiN4YTsJCTxnIGlkPSJzaGFwZTc0NjctNDkiIHRyYW5zZm9ybT0idHJhbnNsYXRlKDU5LjIxNzYsLTM0LjAyNDIpIj4mI3hhOwkJCTx0aXRsZSBpZD0idGl0bGU5MTAwNCI+U2hlZXQuNzQ2NzwvdGl0bGU+JiN4YTsJCQk8cGF0aCBpZD0icGF0aDkxMDA2IiBpbmtzY2FwZTpjb25uZWN0b3ItY3VydmF0dXJlPSIwIiBzdHlsZT0iZmlsbDojRTBFMEUwOyIgZD0iTTExLjczLDY1LjUySDB2LTEuMDRoMTEuNzR2MS4wNEgxMS43M3oiLz4mI3hhOwkJPC9nPiYjeGE7CQk8ZyBpZD0ic2hhcGU3NDY4LTUxIiB0cmFuc2Zvcm09InRyYW5zbGF0ZSg1OS4yMTc2LC0yOC4wMTUyKSI+JiN4YTsJCQk8dGl0bGUgaWQ9InRpdGxlOTEwMDkiPlNoZWV0Ljc0Njg8L3RpdGxlPiYjeGE7CQkJPHBhdGggaWQ9InBhdGg5MTAxMSIgaW5rc2NhcGU6Y29ubmVjdG9yLWN1cnZhdHVyZT0iMCIgc3R5bGU9ImZpbGw6I0UwRTBFMDsiIGQ9Ik0xMC4yOSw2NS41Mkgwdi0xLjA0aDEwLjN2MS4wNEgxMC4yOXoiLz4mI3hhOwkJPC9nPiYjeGE7CQk8ZyBpZD0ic2hhcGU3NDY5LTUzIiB0cmFuc2Zvcm09InRyYW5zbGF0ZSg1OS4yMTc2LC0yNi41MTI5KSI+JiN4YTsJCQk8dGl0bGUgaWQ9InRpdGxlOTEwMTQiPlNoZWV0Ljc0Njk8L3RpdGxlPiYjeGE7CQkJPHBhdGggaWQ9InBhdGg5MTAxNiIgaW5rc2NhcGU6Y29ubmVjdG9yLWN1cnZhdHVyZT0iMCIgc3R5bGU9ImZpbGw6I0UwRTBFMDsiIGQ9Ik0xMS43Myw2NS41Mkgwdi0xLjA0aDExLjc0djEuMDRIMTEuNzN6Ii8+JiN4YTsJCTwvZz4mI3hhOwkJPGcgaWQ9InNoYXBlNzQ3MC01NSIgdHJhbnNmb3JtPSJ0cmFuc2xhdGUoMzUuNDY1NiwtMTguMDA2OSkiPiYjeGE7CQkJPHRpdGxlIGlkPSJ0aXRsZTkxMDE5Ij5TaGVldC43NDcwPC90aXRsZT4mI3hhOwkJCTxwYXRoIGlkPSJwYXRoOTEwMjEiIGlua3NjYXBlOmNvbm5lY3Rvci1jdXJ2YXR1cmU9IjAiIHN0eWxlPSJmaWxsOiNFMEUwRTA7IiBkPSJNMTAuMjksNjUuNTJIMHYtMS4wNGgxMC4zdjEuMDRIMTAuMjl6Ii8+JiN4YTsJCTwvZz4mI3hhOwkJPGcgaWQ9InNoYXBlNzQ3MS01NyIgdHJhbnNmb3JtPSJ0cmFuc2xhdGUoMzUuNDY1NiwtMTYuNDk0NCkiPiYjeGE7CQkJPHRpdGxlIGlkPSJ0aXRsZTkxMDI0Ij5TaGVldC43NDcxPC90aXRsZT4mI3hhOwkJCTxwYXRoIGlkPSJwYXRoOTEwMjYiIGlua3NjYXBlOmNvbm5lY3Rvci1jdXJ2YXR1cmU9IjAiIHN0eWxlPSJmaWxsOiNFMEUwRTA7IiBkPSJNMTEuNzMsNjUuNTJIMHYtMS4wNGgxMS43NHYxLjA0SDExLjczeiIvPiYjeGE7CQk8L2c+JiN4YTsJCTxnIGlkPSJzaGFwZTc0NzItNTkiIHRyYW5zZm9ybT0idHJhbnNsYXRlKDM1LjU2NzEsLTMwLjQ5MTkpIj4mI3hhOwkJCTx0aXRsZSBpZD0idGl0bGU5MTAyOSI+U2hlZXQuNzQ3MjwvdGl0bGU+JiN4YTsJCQk8cGF0aCBpZD0icGF0aDkxMDMxIiBpbmtzY2FwZTpjb25uZWN0b3ItY3VydmF0dXJlPSIwIiBzdHlsZT0iZmlsbDojRTBFMEUwOyIgZD0iTTEwLjI5LDY1LjUySDB2LTEuMDRoMTAuM3YxLjA0SDEwLjI5eiIvPiYjeGE7CQk8L2c+JiN4YTsJCTxnIGlkPSJzaGFwZTc0NzMtNjEiIHRyYW5zZm9ybT0idHJhbnNsYXRlKDM1LjQ2NTYsLTQyLjYzMTgpIj4mI3hhOwkJCTx0aXRsZSBpZD0idGl0bGU5MTAzNCI+U2hlZXQuNzQ3MzwvdGl0bGU+JiN4YTsJCQk8cGF0aCBpZD0icGF0aDkxMDM2IiBpbmtzY2FwZTpjb25uZWN0b3ItY3VydmF0dXJlPSIwIiBzdHlsZT0iZmlsbDojRTBFMEUwOyIgZD0iTTEwLjI5LDY1LjUySDB2LTEuMDRoMTAuM3YxLjA0SDEwLjI5eiIvPiYjeGE7CQk8L2c+JiN4YTsJCTxnIGlkPSJzaGFwZTc0NzQtNjMiIHRyYW5zZm9ybT0idHJhbnNsYXRlKDM1LjU2NzEsLTI4Ljk3OTUpIj4mI3hhOwkJCTx0aXRsZSBpZD0idGl0bGU5MTAzOSI+U2hlZXQuNzQ3NDwvdGl0bGU+JiN4YTsJCQk8cGF0aCBpZD0icGF0aDkxMDQxIiBpbmtzY2FwZTpjb25uZWN0b3ItY3VydmF0dXJlPSIwIiBzdHlsZT0iZmlsbDojRTBFMEUwOyIgZD0iTTExLjczLDY1LjUySDB2LTEuMDRoMTEuNzR2MS4wNEgxMS43M3oiLz4mI3hhOwkJPC9nPiYjeGE7CQk8ZyBpZD0ic2hhcGU3NDc1LTY1IiB0cmFuc2Zvcm09InRyYW5zbGF0ZSg4Mi4wMTU0LC00Mi43NjM3KSI+JiN4YTsJCQk8dGl0bGUgaWQ9InRpdGxlOTEwNDQiPlNoZWV0Ljc0NzU8L3RpdGxlPiYjeGE7CQkJPHBhdGggaWQ9InBhdGg5MTA0NiIgaW5rc2NhcGU6Y29ubmVjdG9yLWN1cnZhdHVyZT0iMCIgc3R5bGU9ImZpbGw6I0YyODIzNjsiIGQ9Ik02LjUyLDY1LjUySDB2LTEuMDRoNi41MlY2NS41MnoiLz4mI3hhOwkJPC9nPiYjeGE7CQk8ZyBpZD0ic2hhcGU3NDc2LTY3IiB0cmFuc2Zvcm09InRyYW5zbGF0ZSg3MS45OTcsLTQyLjc2MzcpIj4mI3hhOwkJCTx0aXRsZSBpZD0idGl0bGU5MTA0OSI+U2hlZXQuNzQ3NjwvdGl0bGU+JiN4YTsJCQk8cGF0aCBpZD0icGF0aDkxMDUxIiBpbmtzY2FwZTpjb25uZWN0b3ItY3VydmF0dXJlPSIwIiBzdHlsZT0iZmlsbDojNDI0MjQyOyIgZD0iTTYuNTIsNjUuNTJIMHYtMS4wNGg2LjUyVjY1LjUyeiIvPiYjeGE7CQk8L2c+JiN4YTsJCTxnIGlkPSJzaGFwZTc0NzctNjkiIHRyYW5zZm9ybT0idHJhbnNsYXRlKDQ4LjcyMiwtNDIuNzYzNykiPiYjeGE7CQkJPHRpdGxlIGlkPSJ0aXRsZTkxMDU0Ij5TaGVldC43NDc3PC90aXRsZT4mI3hhOwkJCTxwYXRoIGlkPSJwYXRoOTEwNTYiIGlua3NjYXBlOmNvbm5lY3Rvci1jdXJ2YXR1cmU9IjAiIHN0eWxlPSJmaWxsOiM0MjQyNDI7IiBkPSJNNi41Miw2NS41Mkgwdi0xLjA0aDYuNTJWNjUuNTJ6Ii8+JiN4YTsJCTwvZz4mI3hhOwkJPGcgaWQ9InNoYXBlNzQ3OC03MSIgdHJhbnNmb3JtPSJ0cmFuc2xhdGUoNzEuOTk3LC0zNS41MjY1KSI+JiN4YTsJCQk8dGl0bGUgaWQ9InRpdGxlOTEwNTkiPlNoZWV0Ljc0Nzg8L3RpdGxlPiYjeGE7CQkJPHBhdGggaWQ9InBhdGg5MTA2MSIgaW5rc2NhcGU6Y29ubmVjdG9yLWN1cnZhdHVyZT0iMCIgc3R5bGU9ImZpbGw6IzQyNDI0MjsiIGQ9Ik02LjUyLDY1LjUySDB2LTEuMDRoNi41MlY2NS41MnoiLz4mI3hhOwkJPC9nPiYjeGE7CQk8ZyBpZD0ic2hhcGU3NDc5LTczIiB0cmFuc2Zvcm09InRyYW5zbGF0ZSg0OC43MjIsLTMwLjUxMjIpIj4mI3hhOwkJCTx0aXRsZSBpZD0idGl0bGU5MTA2NCI+U2hlZXQuNzQ3OTwvdGl0bGU+JiN4YTsJCQk8cGF0aCBpZD0icGF0aDkxMDY2IiBpbmtzY2FwZTpjb25uZWN0b3ItY3VydmF0dXJlPSIwIiBzdHlsZT0iZmlsbDojNDI0MjQyOyIgZD0iTTYuNTIsNjUuNTJIMHYtMS4wNGg2LjUyVjY1LjUyeiIvPiYjeGE7CQk8L2c+JiN4YTsJCTxnIGlkPSJzaGFwZTc0ODAtNzUiIHRyYW5zZm9ybT0idHJhbnNsYXRlKDQ4LjcyMiwtMTcuOTk2NykiPiYjeGE7CQkJPHRpdGxlIGlkPSJ0aXRsZTkxMDY5Ij5TaGVldC43NDgwPC90aXRsZT4mI3hhOwkJCTxwYXRoIGlkPSJwYXRoOTEwNzEiIGlua3NjYXBlOmNvbm5lY3Rvci1jdXJ2YXR1cmU9IjAiIHN0eWxlPSJmaWxsOiM0MjQyNDI7IiBkPSJNNi41Miw2NS41Mkgwdi0xLjA0aDYuNTJWNjUuNTJ6Ii8+JiN4YTsJCTwvZz4mI3hhOwkJPGcgaWQ9InNoYXBlNzQ4MS03NyIgdHJhbnNmb3JtPSJ0cmFuc2xhdGUoNzEuODY1LC0yOC4wNzYxKSI+JiN4YTsJCQk8dGl0bGUgaWQ9InRpdGxlOTEwNzQiPlNoZWV0Ljc0ODE8L3RpdGxlPiYjeGE7CQkJPHBhdGggaWQ9InBhdGg5MTA3NiIgaW5rc2NhcGU6Y29ubmVjdG9yLWN1cnZhdHVyZT0iMCIgc3R5bGU9ImZpbGw6IzQyNDI0MjsiIGQ9Ik02LjUyLDY1LjUySDB2LTEuMDRoNi41MlY2NS41MnoiLz4mI3hhOwkJPC9nPiYjeGE7CQk8ZyBpZD0ic2hhcGU3NDgyLTc5IiB0cmFuc2Zvcm09InRyYW5zbGF0ZSg4MS4yMTM2LC0yNS4wNDExKSI+JiN4YTsJCQk8dGl0bGUgaWQ9InRpdGxlOTEwNzkiPlNoZWV0Ljc0ODI8L3RpdGxlPiYjeGE7CQkJPHBhdGggaWQ9InBhdGg5MTA4MSIgaW5rc2NhcGU6Y29ubmVjdG9yLWN1cnZhdHVyZT0iMCIgc3R5bGU9ImZpbGw6I0ZGRkZGRjsiIGQ9Ik0xMy43Myw2NS41Mkgwdi03LjU1aDEzLjczVjY1LjUyeiIvPiYjeGE7CQk8L2c+JiN4YTsJCTxnIGlkPSJzaGFwZTc0ODMtODEiIHRyYW5zZm9ybT0idHJhbnNsYXRlKDgyLjAxNTQsLTI3Ljk1NDMpIj4mI3hhOwkJCTx0aXRsZSBpZD0idGl0bGU5MTA4NCI+U2hlZXQuNzQ4MzwvdGl0bGU+JiN4YTsJCQk8cGF0aCBpZD0icGF0aDkxMDg2IiBpbmtzY2FwZTpjb25uZWN0b3ItY3VydmF0dXJlPSIwIiBzdHlsZT0iZmlsbDojRTBFMEUwOyIgZD0iTTEwLjMsNjUuNTJIMHYtMS4wNGgxMC4zVjY1LjUyeiIvPiYjeGE7CQk8L2c+JiN4YTsJCTxnIGlkPSJzaGFwZTc0ODQtODMiIHRyYW5zZm9ybT0idHJhbnNsYXRlKDgyLjAxNTQsLTI2LjQ0MTkpIj4mI3hhOwkJCTx0aXRsZSBpZD0idGl0bGU5MTA4OSI+U2hlZXQuNzQ4NDwvdGl0bGU+JiN4YTsJCQk8cGF0aCBpZD0icGF0aDkxMDkxIiBpbmtzY2FwZTpjb25uZWN0b3ItY3VydmF0dXJlPSIwIiBzdHlsZT0iZmlsbDojRTBFMEUwOyIgZD0iTTExLjc0LDY1LjUySDB2LTEuMDRoMTEuNzRWNjUuNTJ6Ii8+JiN4YTsJCTwvZz4mI3hhOwkJPGcgaWQ9InNoYXBlNzQ4NS04NSIgdHJhbnNmb3JtPSJ0cmFuc2xhdGUoODIuMDE1NCwtMjkuOTc0MikiPiYjeGE7CQkJPHRpdGxlIGlkPSJ0aXRsZTkxMDk0Ij5TaGVldC43NDg1PC90aXRsZT4mI3hhOwkJCTxwYXRoIGlkPSJwYXRoOTEwOTYiIGlua3NjYXBlOmNvbm5lY3Rvci1jdXJ2YXR1cmU9IjAiIHN0eWxlPSJmaWxsOiNGMjgyMzY7IiBkPSJNNi41Miw2NS41Mkgwdi0xLjA0aDYuNTJWNjUuNTJ6Ii8+JiN4YTsJCTwvZz4mI3hhOwkJPGcgaWQ9InNoYXBlNzQ4Ni04NyIgdHJhbnNmb3JtPSJ0cmFuc2xhdGUoODIuMDM1NywtMzUuNzgwMykiPiYjeGE7CQkJPHRpdGxlIGlkPSJ0aXRsZTkxMDk5Ij5TaGVldC43NDg2PC90aXRsZT4mI3hhOwkJCTxwYXRoIGlkPSJwYXRoOTExMDEiIGlua3NjYXBlOmNvbm5lY3Rvci1jdXJ2YXR1cmU9IjAiIHN0eWxlPSJmaWxsOiMyMTk1RjM7IiBkPSJNMTEuODMsNjQuNEgwdjEuMTJoMTEuODNWNjQuNHoiLz4mI3hhOwkJPC9nPiYjeGE7CQk8ZyBpZD0ic2hhcGU3NDg3LTg5IiB0cmFuc2Zvcm09InRyYW5zbGF0ZSgzNS43NDk4LC0zNy4yNDE5KSI+JiN4YTsJCQk8dGl0bGUgaWQ9InRpdGxlOTExMDQiPlNoZWV0Ljc0ODc8L3RpdGxlPiYjeGE7CQkJPHBhdGggaWQ9InBhdGg5MTEwNiIgaW5rc2NhcGU6Y29ubmVjdG9yLWN1cnZhdHVyZT0iMCIgc3R5bGU9ImZpbGw6IzIxOTVGMzsiIGQ9Ik0xMS44Myw2NC40SDB2MS4xMmgxMS44M1Y2NC40eiIvPiYjeGE7CQk8L2c+JiN4YTsJCTxnIGlkPSJzaGFwZTc0ODgtOTEiIHRyYW5zZm9ybT0idHJhbnNsYXRlKDM1Ljc0OTgsLTM1LjUxNjMpIj4mI3hhOwkJCTx0aXRsZSBpZD0idGl0bGU5MTEwOSI+U2hlZXQuNzQ4ODwvdGl0bGU+JiN4YTsJCQk8cGF0aCBpZD0icGF0aDkxMTExIiBpbmtzY2FwZTpjb25uZWN0b3ItY3VydmF0dXJlPSIwIiBzdHlsZT0iZmlsbDojMjE5NUYzOyIgZD0iTTExLjgzLDY0LjRIMHYxLjEyaDExLjgzVjY0LjR6Ii8+JiN4YTsJCTwvZz4mI3hhOwkJPGcgaWQ9InNoYXBlNzQ4OS05MyIgdHJhbnNmb3JtPSJ0cmFuc2xhdGUoMzUuNTQ2OCwtMjQuOTE5MykiPiYjeGE7CQkJPHRpdGxlIGlkPSJ0aXRsZTkxMTE0Ij5TaGVldC43NDg5PC90aXRsZT4mI3hhOwkJCTxwYXRoIGlkPSJwYXRoOTExMTYiIGlua3NjYXBlOmNvbm5lY3Rvci1jdXJ2YXR1cmU9IjAiIHN0eWxlPSJmaWxsOiMyMTk1RjM7IiBkPSJNMTEuODMsNjQuNEgwdjEuMTJoMTEuODNWNjQuNHoiLz4mI3hhOwkJPC9nPiYjeGE7CQk8ZyBpZD0ic2hhcGU3NDkwLTk1IiB0cmFuc2Zvcm09InRyYW5zbGF0ZSgzNS41NDY4LC0yMy4xOTM3KSI+JiN4YTsJCQk8dGl0bGUgaWQ9InRpdGxlOTExMTkiPlNoZWV0Ljc0OTA8L3RpdGxlPiYjeGE7CQkJPHBhdGggaWQ9InBhdGg5MTEyMSIgaW5rc2NhcGU6Y29ubmVjdG9yLWN1cnZhdHVyZT0iMCIgc3R5bGU9ImZpbGw6IzIxOTVGMzsiIGQ9Ik0xMS44Myw2NC40SDB2MS4xMmgxMS44M1Y2NC40eiIvPiYjeGE7CQk8L2c+JiN4YTsJCTxnIGlkPSJzaGFwZTc0OTEtOTciIHRyYW5zZm9ybT0idHJhbnNsYXRlKDE3Ljc2MzIsLTU3LjM2MDEpIj4mI3hhOwkJCTx0aXRsZSBpZD0idGl0bGU5MTEyNCI+U2hlZXQuNzQ5MTwvdGl0bGU+JiN4YTsJCQk8cGF0aCBpZD0icGF0aDkxMTI2IiBpbmtzY2FwZTpjb25uZWN0b3ItY3VydmF0dXJlPSIwIiBzdHlsZT0iZmlsbDojMjE5NUYzOyIgZD0iTTMuNzIsNjUuNTJIMHYtMi45MWgzLjcyVjY1LjUyeiIvPiYjeGE7CQk8L2c+JiN4YTsJCTxnIGlkPSJzaGFwZTc0OTItOTkiIHRyYW5zZm9ybT0idHJhbnNsYXRlKDIyLjg4OTIsLTU3LjMwOTMpIj4mI3hhOwkJCTx0aXRsZSBpZD0idGl0bGU5MTEyOSI+U2hlZXQuNzQ5MjwvdGl0bGU+JiN4YTsJCQk8cGF0aCBpZD0icGF0aDkxMTMxIiBpbmtzY2FwZTpjb25uZWN0b3ItY3VydmF0dXJlPSIwIiBzdHlsZT0iZmlsbDojRTBFMEUwOyIgZD0iTTkuMzEsNjUuNTJIMHYtMi45NWg5LjMxVjY1LjUyeiIvPiYjeGE7CQk8L2c+JiN4YTsJCTxnIGlkPSJzaGFwZTc0OTMtMTAxIiB0cmFuc2Zvcm09InRyYW5zbGF0ZSg4Ni40MzA5LC01Ny4zMDkzKSI+JiN4YTsJCQk8dGl0bGUgaWQ9InRpdGxlOTExMzQiPlNoZWV0Ljc0OTM8L3RpdGxlPiYjeGE7CQkJPHBhdGggaWQ9InBhdGg5MTEzNiIgaW5rc2NhcGU6Y29ubmVjdG9yLWN1cnZhdHVyZT0iMCIgc3R5bGU9ImZpbGw6I0UwRTBFMDsiIGQ9Ik04LjU0LDY1LjUySDB2LTIuOTVoOC41NFY2NS41MnoiLz4mI3hhOwkJPC9nPiYjeGE7CQk8ZyBpZD0ic2hhcGU3NDk0LTEwMyIgdHJhbnNmb3JtPSJ0cmFuc2xhdGUoMzQuMTY2MywtNTcuMzkwNSkiPiYjeGE7CQkJPHRpdGxlIGlkPSJ0aXRsZTkxMTM5Ij5TaGVldC43NDk0PC90aXRsZT4mI3hhOwkJCTxwYXRoIGlkPSJwYXRoOTExNDEiIGlua3NjYXBlOmNvbm5lY3Rvci1jdXJ2YXR1cmU9IjAiIHN0eWxlPSJmaWxsOiNGMjgyMzY7IiBkPSJNMy4zOCw2NS41Mkgwdi0yLjc3aDMuMzhWNjUuNTJ6Ii8+JiN4YTsJCTwvZz4mI3hhOwkJPGcgaWQ9InNoYXBlNzQ5NS0xMDUiIHRyYW5zZm9ybT0idHJhbnNsYXRlKDgxLjI2NDMsLTU3LjQ5MikiPiYjeGE7CQkJPHRpdGxlIGlkPSJ0aXRsZTkxMTQ0Ij5TaGVldC43NDk1PC90aXRsZT4mI3hhOwkJCTxwYXRoIGlkPSJwYXRoOTExNDYiIGlua3NjYXBlOmNvbm5lY3Rvci1jdXJ2YXR1cmU9IjAiIHN0eWxlPSJmaWxsOiNGMjgyMzY7IiBkPSJNMy4zOCw2NS41Mkgwdi0yLjc3aDMuMzhWNjUuNTJ6Ii8+JiN4YTsJCTwvZz4mI3hhOwkJPGcgaWQ9InNoYXBlNzQ5Ni0xMDciIHRyYW5zZm9ybT0idHJhbnNsYXRlKDc2LjA1NzEsLTU3LjQ5MikiPiYjeGE7CQkJPHRpdGxlIGlkPSJ0aXRsZTkxMTQ5Ij5TaGVldC43NDk2PC90aXRsZT4mI3hhOwkJCTxwYXRoIGlkPSJwYXRoOTExNTEiIGlua3NjYXBlOmNvbm5lY3Rvci1jdXJ2YXR1cmU9IjAiIHN0eWxlPSJmaWxsOiNGMjgyMzY7IiBkPSJNMy4zOCw2NS41Mkgwdi0yLjc3aDMuMzhWNjUuNTJ6Ii8+JiN4YTsJCTwvZz4mI3hhOwkJPGcgaWQ9InNoYXBlNzQ5Ny0xMDkiIHRyYW5zZm9ybT0idHJhbnNsYXRlKDcwLjk4MTksLTU3LjQ5MikiPiYjeGE7CQkJPHRpdGxlIGlkPSJ0aXRsZTkxMTU0Ij5TaGVldC43NDk3PC90aXRsZT4mI3hhOwkJCTxwYXRoIGlkPSJwYXRoOTExNTYiIGlua3NjYXBlOmNvbm5lY3Rvci1jdXJ2YXR1cmU9IjAiIHN0eWxlPSJmaWxsOiNGMjgyMzY7IiBkPSJNMy4zOCw2NS41Mkgwdi0yLjc3aDMuMzhWNjUuNTJ6Ii8+JiN4YTsJCTwvZz4mI3hhOwkJPGcgaWQ9InNoYXBlNzQ5OC0xMTEiIHRyYW5zZm9ybT0idHJhbnNsYXRlKDExLjUxMDYsLTQuNzA5OCkiPiYjeGE7CQkJPHRpdGxlIGlkPSJ0aXRsZTkxMTU5Ij5TaGVldC43NDk4PC90aXRsZT4mI3hhOwkJCTxwYXRoIGlkPSJwYXRoOTExNjEiIGlua3NjYXBlOmNvbm5lY3Rvci1jdXJ2YXR1cmU9IjAiIHN0eWxlPSJmaWxsOiM0MjQyNDI7IiBkPSJNODUuODgsNS4zNUgzLjAyQzEuMjksNS4zNSwwLDYuNzYsMCw4LjQ5djU3LjAzICAgICBoODguOVY4LjQ5Qzg4LjkxLDYuNzYsODcuNjMsNS4zNSw4NS44OCw1LjM1eiBNODQuOCw2MS43M0g0LjYxVjguODVIODQuOFY2MS43M3oiLz4mI3hhOwkJPC9nPiYjeGE7CTwvZz4mI3hhOzwvZz4mI3hhOzwvc3ZnPg==;strokeColor=#000000;" vertex="1" parent="1">
          <mxGeometry x="844" y="640.0000000000018" width="114" height="65" as="geometry" />
        </mxCell>
      </root>
    </mxGraphModel>
  </diagram>
</mxfile>
